riter base.ufo
<glyph name="quotedbl" format="1">
  <advance width="421"/>
  <unicode hex="0022"/>
  <outline>
    <contour>
      <point x="187" y="800" type="line"/>
      <point x="74" y="800" type="line"/>
      <point x="94" y="465" type="line"/>
      <point x="167" y="465" type="line"/>
    </contour>
    <contour>
      <point x="347" y="800" type="line"/>
      <point x="234" y="800" type="line"/>
      <point x="254" y="465" type="line"/>
      <point x="327" y="465" type="line"/>
    </contour>
  </outline>
</glyph>
<glyph name="dollar" format="1">
  <advance width="530"/>
  <unicode hex="0024"/>
  <outline>
    <contour>
      <point x="309" y="430" type="curve" smooth="yes"/>
      <point x="202" y="445"/>
      <point x="160" y="467"/>
      <point x="160" y="517" type="curve"/>
      <point x="160" y="557"/>
      <point x="193" y="600"/>
      <point x="267" y="600" type="curve"/>
      <point x="324" y="600"/>
      <point x="362" y="579"/>
      <point x="370" y="569" type="curve"/>
      <point x="389" y="504" type="line"/>
      <point x="452" y="504" type="line"/>
      <point x="452" y="614" type="line"/>
      <point x="427" y="636"/>
      <point x="374" y="669"/>
      <point x="270" y="669" type="curve"/>
      <point x="121" y="669"/>
      <point x="66" y="601"/>
      <point x="66" y="512" type="curve"/>
      <point x="66" y="417"/>
      <point x="122" y="372"/>
      <point x="236" y="354" type="curve" smooth="yes"/>
      <point x="344" y="337"/>
      <point x="387" y="311"/>
      <point x="387" y="269" type="curve"/>
      <point x="387" y="205"/>
      <point x="344" y="181"/>
      <point x="270" y="181" type="curve"/>
      <point x="200" y="181"/>
      <point x="166" y="202"/>
      <point x="155" y="211" type="curve"/>
      <point x="132" y="291" type="line"/>
      <point x="68" y="291" type="line"/>
      <point x="68" y="172" type="line"/>
      <point x="85" y="155"/>
      <point x="151" y="107"/>
      <point x="269" y="107" type="curve"/>
      <point x="417" y="107"/>
      <point x="481" y="166"/>
      <point x="481" y="275" type="curve"/>
      <point x="481" y="376"/>
      <point x="420" y="415"/>
    </contour>
    <contour>
      <point x="307" y="648" type="line" smooth="yes"/>
      <point x="317" y="882" type="line"/>
      <point x="230" y="882" type="line"/>
      <point x="241" y="648" type="line"/>
    </contour>
    <contour>
      <point x="307" y="142" type="line"/>
      <point x="241" y="142" type="line"/>
      <point x="230" y="-92" type="line"/>
      <point x="317" y="-92" type="line"/>
    </contour>
  </outline>
</glyph>
<glyph name="ampersand" format="1">
  <advance width="708"/>
  <unicode hex="0026"/>
  <outline>
    <contour>
      <point x="475" y="170" type="line"/>
      <point x="443.018159733" y="123.480959611"/>
      <point x="392" y="66"/>
      <point x="305" y="66" type="curve"/>
      <point x="202" y="66"/>
      <point x="163" y="143"/>
      <point x="163" y="257" type="curve" smooth="yes"/>
      <point x="163" y="384"/>
      <point x="218" y="451"/>
      <point x="390" y="451" type="curve"/>
      <point x="656" y="451" type="line"/>
      <point x="656" y="526" type="line"/>
      <point x="357" y="526" type="line"/>
      <point x="210" y="526"/>
      <point x="201.0" y="604.082191781"/>
      <point x="201.0" y="676.0" type="curve" smooth="yes"/>
      <point x="201" y="756"/>
      <point x="241" y="810"/>
      <point x="312" y="810" type="curve" smooth="yes"/>
      <point x="339" y="810"/>
      <point x="389" y="808"/>
      <point x="412" y="783" type="curve"/>
      <point x="428" y="658" type="line"/>
      <point x="497" y="658" type="line"/>
      <point x="506" y="822" type="line"/>
      <point x="453" y="875"/>
      <point x="366" y="887"/>
      <point x="311" y="887" type="curve" smooth="yes"/>
      <point x="175" y="887"/>
      <point x="103" y="800"/>
      <point x="103.0" y="684.0" type="curve" smooth="yes"/>
      <point x="103.0" y="622.0"/>
      <point x="103" y="476"/>
      <point x="320" y="476" type="curve"/>
      <point x="323" y="511" type="line"/>
      <point x="137" y="511"/>
      <point x="60.0" y="387.0"/>
      <point x="60" y="243" type="curve"/>
      <point x="60.0" y="94.0"/>
      <point x="128" y="-17"/>
      <point x="295" y="-17" type="curve"/>
      <point x="406" y="-17"/>
      <point x="471" y="53"/>
      <point x="493.0" y="101.0" type="curve"/>
    </contour>
    <contour>
      <point x="457.0" y="131.0" type="line"/>
      <point x="457.0" y="35.0"/>
      <point x="529.0" y="-6.0"/>
      <point x="608.0" y="-6.0" type="curve"/>
      <point x="638.0" y="-6.0"/>
      <point x="662" y="-3"/>
      <point x="683" y="3" type="curve"/>
      <point x="674.0" y="69.0" type="line"/>
      <point x="664.0" y="67.0"/>
      <point x="653.0" y="66.0"/>
      <point x="641.0" y="66.0" type="curve"/>
      <point x="560.0" y="66.0"/>
      <point x="553" y="116"/>
      <point x="553" y="203" type="curve"/>
      <point x="553" y="505" type="line"/>
      <point x="457" y="505" type="line"/>
    </contour>
  </outline>
</glyph>
<glyph name="quotesingle" format="1">
  <advance width="317"/>
  <unicode hex="0027"/>
  <outline>
    <contour>
      <point x="214" y="800" type="line"/>
      <point x="101" y="800" type="line"/>
      <point x="121" y="465" type="line"/>
      <point x="194" y="465" type="line"/>
    </contour>
  </outline>
</glyph>
<glyph name="parenleft" format="1">
  <advance width="439"/>
  <unicode hex="0028"/>
  <outline>
    <contour>
      <point x="355" y="-38" type="line"/>
      <point x="258" y="-38"/>
      <point x="199" y="114"/>
      <point x="199" y="377" type="curve" smooth="yes"/>
      <point x="199" y="632"/>
      <point x="259" y="797"/>
      <point x="355" y="797" type="curve"/>
      <point x="355" y="863" type="line"/>
      <point x="186" y="863"/>
      <point x="84" y="700"/>
      <point x="84" y="377" type="curve" smooth="yes"/>
      <point x="84" y="47"/>
      <point x="186" y="-109"/>
      <point x="355" y="-109" type="curve"/>
    </contour>
  </outline>
</glyph>
<glyph name="parenright" format="1">
  <advance width="439"/>
  <unicode hex="0029"/>
  <outline>
    <contour>
      <point x="84" y="-38" type="curve"/>
      <point x="84" y="-109" type="line"/>
      <point x="253" y="-109"/>
      <point x="355" y="47"/>
      <point x="355" y="377" type="curve" smooth="yes"/>
      <point x="355" y="700"/>
      <point x="253" y="863"/>
      <point x="84" y="863" type="curve"/>
      <point x="84" y="797" type="line"/>
      <point x="180" y="797"/>
      <point x="240" y="632"/>
      <point x="240" y="377" type="curve" smooth="yes"/>
      <point x="240" y="114"/>
      <point x="181" y="-38"/>
    </contour>
  </outline>
</glyph>
<glyph name="asterisk" format="1">
  <advance width="620"/>
  <unicode hex="002A"/>
  <outline>
    <contour>
      <point x="361" y="120" type="line"/>
      <point x="331" y="326" type="line"/>
      <point x="320" y="319" type="line"/>
      <point x="481" y="192" type="line"/>
      <point x="536" y="283" type="line"/>
      <point x="342" y="360" type="line"/>
      <point x="342" y="346" type="line"/>
      <point x="536" y="424" type="line"/>
      <point x="480" y="513" type="line"/>
      <point x="320" y="386" type="line"/>
      <point x="331" y="379" type="line"/>
      <point x="361" y="585" type="line"/>
      <point x="258" y="583" type="line"/>
      <point x="287" y="378" type="line"/>
      <point x="298" y="385" type="line"/>
      <point x="134" y="514" type="line"/>
      <point x="85" y="421" type="line"/>
      <point x="274" y="346" type="line"/>
      <point x="274" y="359" type="line"/>
      <point x="84" y="284" type="line"/>
      <point x="134" y="193" type="line"/>
      <point x="298" y="320" type="line"/>
      <point x="287" y="327" type="line"/>
      <point x="258" y="122" type="line"/>
    </contour>
  </outline>
</glyph>
<glyph name="comma" format="1">
  <advance width="310"/>
  <unicode hex="002C"/>
  <outline>
    <contour>
      <point x="84" y="66" type="curve" smooth="yes"/>
      <point x="84" y="1"/>
      <point x="100" y="-13"/>
      <point x="155" y="-13" type="curve" smooth="yes"/>
      <point x="209" y="-13"/>
      <point x="226" y="1"/>
      <point x="226" y="66" type="curve" smooth="yes"/>
      <point x="226" y="131"/>
      <point x="209" y="143"/>
      <point x="155" y="143" type="curve" smooth="yes"/>
      <point x="100" y="143"/>
      <point x="84" y="131"/>
    </contour>
    <contour>
      <point x="141" y="-108" type="line"/>
      <point x="197" y="-108" type="line"/>
      <point x="226" y="-10" type="line"/>
      <point x="226" y="64" type="line"/>
      <point x="141" y="64" type="line"/>
    </contour>
  </outline>
</glyph>
<glyph name="slash" format="1">
  <advance width="623"/>
  <unicode hex="002F"/>
  <outline>
    <contour>
      <point x="56" y="-3" type="line"/>
      <point x="144" y="-52" type="line"/>
      <point x="581" y="797" type="line"/>
      <point x="494" y="846" type="line"/>
    </contour>
  </outline>
</glyph>
<glyph name="zero" format="1">
  <advance width="638"/>
  <unicode hex="0030"/>
  <outline>
    <contour>
      <point x="323" y="774" type="curve" smooth="yes"/>
      <point x="538" y="774"/>
      <point x="578" y="626"/>
      <point x="578" y="359" type="curve" smooth="yes"/>
      <point x="578" y="91"/>
      <point x="530" y="-19"/>
      <point x="323" y="-19" type="curve" smooth="yes"/>
      <point x="116" y="-19"/>
      <point x="67" y="90"/>
      <point x="67" y="357" type="curve" smooth="yes"/>
      <point x="67" y="623"/>
      <point x="108" y="774"/>
    </contour>
    <contour>
      <point x="171" y="356" type="curve" smooth="yes"/>
      <point x="171.0" y="115.986394558"/>
      <point x="184.0" y="57.0"/>
      <point x="323" y="57" type="curve" smooth="yes"/>
      <point x="462.0" y="57.0"/>
      <point x="473.0" y="157.672297297"/>
      <point x="473" y="358" type="curve" smooth="yes"/>
      <point x="473.0" y="573.888235294"/>
      <point x="474.0" y="701.0"/>
      <point x="323" y="701" type="curve" smooth="yes"/>
      <point x="173.0" y="701.0"/>
      <point x="171.0" y="552.710526316"/>
    </contour>
    <contour>
      <point x="188" y="54" type="line"/>
      <point x="170" y="84" type="line"/>
      <point x="203" y="214" type="line"/>
      <point x="395" y="629" type="line"/>
      <point x="444" y="686" type="line"/>
      <point x="468" y="651" type="line"/>
      <point x="447" y="532" type="line"/>
      <point x="245" y="108" type="line"/>
    </contour>
  </outline>
</glyph>
<glyph name="two" format="1">
  <advance width="588"/>
  <unicode hex="0032"/>
  <outline>
    <contour>
      <point x="79" y="105" type="curve"/>
      <point x="79" y="0" type="line"/>
      <point x="521" y="0" type="line"/>
      <point x="536" y="209" type="line"/>
      <point x="479" y="209" type="line"/>
      <point x="417" y="54" type="line"/>
      <point x="474" y="85" type="line"/>
      <point x="164" y="85" type="line"/>
      <point x="183" y="73" type="line"/>
      <point x="183" y="183"/>
      <point x="226" y="224"/>
      <point x="317" y="294" type="curve" smooth="yes"/>
      <point x="435" y="384"/>
      <point x="526" y="434"/>
      <point x="526" y="579" type="curve"/>
      <point x="526" y="700"/>
      <point x="473" y="777"/>
      <point x="321" y="777" type="curve"/>
      <point x="175" y="777"/>
      <point x="99" y="685"/>
      <point x="99" y="673" type="curve"/>
      <point x="99" y="518" type="line"/>
      <point x="172" y="518" type="line"/>
      <point x="200" y="682" type="line"/>
      <point x="167" y="620" type="line"/>
      <point x="219" y="665"/>
      <point x="245" y="694"/>
      <point x="316" y="694" type="curve"/>
      <point x="393" y="694"/>
      <point x="425" y="653"/>
      <point x="425" y="578" type="curve"/>
      <point x="425" y="475"/>
      <point x="357" y="439"/>
      <point x="259" y="374" type="curve" smooth="yes"/>
      <point x="150" y="302"/>
      <point x="79" y="210"/>
    </contour>
  </outline>
</glyph>
<glyph name="three" format="1">
  <advance width="554"/>
  <unicode hex="0033"/>
  <outline>
    <contour>
      <point x="272" y="-13" type="curve"/>
      <point x="423" y="-13"/>
      <point x="530.0" y="55.2741935484"/>
      <point x="530" y="236" type="curve"/>
      <point x="530" y="378"/>
      <point x="423" y="434"/>
      <point x="331" y="434" type="curve"/>
      <point x="239" y="434"/>
      <point x="219" y="417"/>
      <point x="200" y="402" type="curve"/>
      <point x="237" y="389" type="line"/>
      <point x="501" y="636" type="line"/>
      <point x="501" y="752" type="line"/>
      <point x="83" y="752" type="line" smooth="yes"/>
      <point x="83" y="571" type="line"/>
      <point x="149" y="571" type="line"/>
      <point x="169" y="679" type="line"/>
      <point x="145" y="662" type="line"/>
      <point x="440" y="662" type="line"/>
      <point x="422" y="678" type="line"/>
      <point x="142" y="400" type="line"/>
      <point x="180" y="333" type="line"/>
      <point x="206" y="347"/>
      <point x="237" y="362"/>
      <point x="295" y="362" type="curve"/>
      <point x="359.984615385" y="362.0"/>
      <point x="423.0" y="317.0"/>
      <point x="423" y="228" type="curve"/>
      <point x="423.0" y="128.0"/>
      <point x="376.661971831" y="70.0"/>
      <point x="283" y="70" type="curve"/>
      <point x="181.0" y="70.0"/>
      <point x="134.443017931" y="134.113964138"/>
      <point x="117" y="169" type="curve"/>
      <point x="59" y="107" type="line"/>
      <point x="76.1790260734" y="63.5471693438"/>
      <point x="128.634615385" y="-13.0"/>
    </contour>
  </outline>
</glyph>
<glyph name="four" format="1">
  <advance width="642"/>
  <unicode hex="0034"/>
  <outline>
    <contour>
      <point x="393" y="680" type="line"/>
      <point x="393" y="41" type="line" smooth="yes"/>
      <point x="492" y="44" type="line"/>
      <point x="492" y="764" type="line"/>
      <point x="400" y="764" type="line"/>
      <point x="57" y="297" type="line"/>
      <point x="57" y="192" type="line"/>
      <point x="590" y="192" type="line"/>
      <point x="590" y="274" type="line"/>
      <point x="93" y="274" type="line"/>
      <point x="133" y="240" type="line"/>
      <point x="426" y="657" type="line"/>
    </contour>
    <contour>
      <point x="495" y="76" type="line"/>
      <point x="393" y="76" type="line"/>
      <point x="278" y="41" type="line"/>
      <point x="278" y="0" type="line"/>
      <point x="556" y="0" type="line"/>
      <point x="556" y="41" type="line"/>
    </contour>
  </outline>
</glyph>
<glyph name="five" format="1">
  <advance width="571"/>
  <unicode hex="0035"/>
  <outline>
    <contour>
      <point x="282" y="390" type="curve"/>
      <point x="360.0" y="390.0"/>
      <point x="416.0" y="334.941176471"/>
      <point x="416" y="234" type="curve"/>
      <point x="416" y="132"/>
      <point x="373" y="66"/>
      <point x="267" y="66" type="curve"/>
      <point x="154.708609272" y="66.0"/>
      <point x="125.300915696" y="126.699084304"/>
      <point x="110" y="142" type="curve"/>
      <point x="56" y="68" type="line"/>
      <point x="79.3231056034" y="43.6628463269"/>
      <point x="138.330097087" y="-21.0"/>
      <point x="268" y="-21" type="curve"/>
      <point x="450.408560311" y="-21.0"/>
      <point x="527.0" y="87.0"/>
      <point x="527" y="237" type="curve"/>
      <point x="527.0" y="401.0"/>
      <point x="437.208888889" y="475.0"/>
      <point x="300" y="475" type="curve"/>
      <point x="209.34965035" y="475.0"/>
      <point x="177.690573991" y="459.531210763"/>
      <point x="151" y="439" type="curve"/>
      <point x="171" y="424" type="line"/>
      <point x="171" y="678" type="line"/>
      <point x="143" y="660" type="line"/>
      <point x="441" y="660" type="line"/>
      <point x="385" y="702" type="line"/>
      <point x="415" y="574" type="line"/>
      <point x="483" y="574" type="line"/>
      <point x="483" y="750" type="line"/>
      <point x="83" y="750" type="line"/>
      <point x="83" y="392" type="line"/>
      <point x="141" y="351" type="line"/>
      <point x="169.802639111" y="372.601979333"/>
      <point x="208.888888889" y="390.0"/>
    </contour>
  </outline>
</glyph>
<glyph name="six" format="1">
  <advance width="586"/>
  <unicode hex="0036"/>
  <outline>
    <contour>
      <point x="132" y="427" type="line"/>
      <point x="154.0" y="450.0"/>
      <point x="226" y="495"/>
      <point x="322" y="495" type="curve"/>
      <point x="463" y="495"/>
      <point x="537.0" y="403.0"/>
      <point x="537" y="259" type="curve"/>
      <point x="537.0" y="91.0"/>
      <point x="474.729257642" y="-19.0"/>
      <point x="307" y="-19" type="curve"/>
      <point x="100" y="-19"/>
      <point x="57" y="117"/>
      <point x="57" y="374" type="curve"/>
      <point x="57" y="648"/>
      <point x="116" y="774"/>
      <point x="313" y="774" type="curve" smooth="yes"/>
      <point x="426.608695652" y="774.0"/>
      <point x="492" y="726"/>
      <point x="514" y="647" type="curve"/>
      <point x="441" y="609" type="line"/>
      <point x="426" y="664"/>
      <point x="391.328358209" y="698.0"/>
      <point x="313" y="698" type="curve" smooth="yes"/>
      <point x="191" y="698"/>
      <point x="161" y="566"/>
      <point x="161" y="364" type="curve"/>
      <point x="161" y="169"/>
      <point x="193" y="60"/>
      <point x="302" y="60" type="curve"/>
      <point x="416.0" y="60.0"/>
      <point x="431.0" y="159.46969697"/>
      <point x="431" y="255" type="curve"/>
      <point x="431.0" y="355.891719745"/>
      <point x="393" y="415"/>
      <point x="306" y="415" type="curve"/>
      <point x="233" y="415"/>
      <point x="180.0" y="379.0"/>
      <point x="140" y="348" type="curve"/>
    </contour>
  </outline>
</glyph>
<glyph name="seven" format="1">
  <advance width="497"/>
  <unicode hex="0037"/>
  <outline>
    <contour>
      <point x="105" y="0" type="line"/>
      <point x="393" y="666" type="line"/>
      <point x="406" y="655" type="line"/>
      <point x="123" y="655" type="line"/>
      <point x="86" y="524" type="line"/>
      <point x="30" y="524" type="line"/>
      <point x="30" y="750" type="line"/>
      <point x="480" y="750" type="line"/>
      <point x="480" y="673" type="line"/>
      <point x="225" y="0" type="line"/>
    </contour>
  </outline>
</glyph>
<glyph name="eight" format="1">
  <advance width="556"/>
  <unicode hex="0038"/>
  <outline>
    <contour>
      <point x="279" y="-20" type="curve" smooth="yes"/>
      <point x="472.0" y="-20.0"/>
      <point x="534.0" y="73.77593361"/>
      <point x="534" y="206" type="curve"/>
      <point x="534.0" y="349.213114754"/>
      <point x="455.0" y="414.0"/>
      <point x="383" y="414" type="curve"/>
      <point x="384" y="384" type="line"/>
      <point x="455.0" y="384.0"/>
      <point x="507.0" y="457.285714286"/>
      <point x="507" y="574" type="curve"/>
      <point x="507.0" y="678.265957447"/>
      <point x="449.0" y="772.0"/>
      <point x="285" y="772" type="curve" smooth="yes"/>
      <point x="121.0" y="772.0"/>
      <point x="62.0" y="681.425531915"/>
      <point x="62" y="574" type="curve"/>
      <point x="62.0" y="462.770334928"/>
      <point x="111.0" y="385.0"/>
      <point x="182" y="385" type="curve"/>
      <point x="183" y="418" type="line"/>
      <point x="111.0" y="418.0"/>
      <point x="34.0" y="352.245989305"/>
      <point x="34" y="206" type="curve"/>
      <point x="34.0" y="73.77593361"/>
      <point x="86.0" y="-20.0"/>
    </contour>
    <contour>
      <point x="195.0" y="434.0"/>
      <point x="163.0" y="475.407407407"/>
      <point x="163" y="564" type="curve" smooth="yes"/>
      <point x="163.0" y="645.860465116"/>
      <point x="197.0" y="696.0"/>
      <point x="284" y="696" type="curve" smooth="yes"/>
      <point x="371.0" y="696.0"/>
      <point x="409.0" y="647.906976744"/>
      <point x="409" y="564" type="curve" smooth="yes"/>
      <point x="409.0" y="476.37037037"/>
      <point x="369.0" y="434.0"/>
      <point x="282" y="434" type="curve" smooth="yes"/>
    </contour>
    <contour>
      <point x="280" y="355" type="curve" smooth="yes"/>
      <point x="376.653061224" y="355.0"/>
      <point x="428.0" y="318.0"/>
      <point x="428" y="206" type="curve"/>
      <point x="428.0" y="115.0"/>
      <point x="396.790540541" y="62.0"/>
      <point x="279" y="62" type="curve" smooth="yes"/>
      <point x="161.1875" y="62.0"/>
      <point x="134.0" y="115.0"/>
      <point x="134" y="206" type="curve"/>
      <point x="134.0" y="315.0"/>
      <point x="183.337931034" y="355.0"/>
    </contour>
  </outline>
</glyph>
<glyph name="nine" format="1">
  <advance width="593"/>
  <unicode hex="0039"/>
  <outline>
    <contour>
      <point x="461" y="334" type="line"/>
      <point x="450" y="303"/>
      <point x="385" y="237"/>
      <point x="284" y="237" type="curve"/>
      <point x="128" y="237"/>
      <point x="55" y="337"/>
      <point x="55" y="511" type="curve"/>
      <point x="55" y="675"/>
      <point x="145" y="774"/>
      <point x="299" y="774" type="curve"/>
      <point x="497" y="774"/>
      <point x="536" y="639"/>
      <point x="536" y="409" type="curve"/>
      <point x="536" y="107"/>
      <point x="448" y="-19"/>
      <point x="271" y="-19" type="curve"/>
      <point x="153" y="-19"/>
      <point x="107" y="32"/>
      <point x="80" y="66" type="curve"/>
      <point x="121" y="131" type="line"/>
      <point x="153.249610738" y="96.6697692143"/>
      <point x="179.0" y="59.0"/>
      <point x="263" y="59" type="curve"/>
      <point x="379.0" y="59.0"/>
      <point x="438.0" y="149.894894895"/>
      <point x="438" y="388" type="curve"/>
      <point x="438" y="603"/>
      <point x="406" y="695"/>
      <point x="294" y="695" type="curve"/>
      <point x="193" y="695"/>
      <point x="160" y="605"/>
      <point x="160" y="512" type="curve"/>
      <point x="160" y="390"/>
      <point x="200" y="317"/>
      <point x="294" y="317" type="curve"/>
      <point x="380" y="317"/>
      <point x="427" y="357"/>
      <point x="453" y="404" type="curve"/>
    </contour>
  </outline>
</glyph>
<glyph name="colon" format="1">
  <advance width="310"/>
  <unicode hex="003A"/>
  <outline>
    <contour>
      <point x="155" y="143" type="curve" smooth="yes"/>
      <point x="209" y="143"/>
      <point x="226" y="131"/>
      <point x="226" y="66" type="curve" smooth="yes"/>
      <point x="226" y="1"/>
      <point x="209" y="-13"/>
      <point x="155" y="-13" type="curve" smooth="yes"/>
      <point x="100" y="-13"/>
      <point x="84" y="1"/>
      <point x="84" y="66" type="curve" smooth="yes"/>
      <point x="84" y="131"/>
      <point x="100" y="143"/>
    </contour>
    <contour>
      <point x="155" y="443" type="curve" smooth="yes"/>
      <point x="209" y="443"/>
      <point x="226" y="431"/>
      <point x="226" y="366" type="curve" smooth="yes"/>
      <point x="226" y="301"/>
      <point x="209" y="287"/>
      <point x="155" y="287" type="curve" smooth="yes"/>
      <point x="100" y="287"/>
      <point x="84" y="301"/>
      <point x="84" y="366" type="curve" smooth="yes"/>
      <point x="84" y="431"/>
      <point x="100" y="443"/>
    </contour>
  </outline>
</glyph>
<glyph name="semicolon" format="1">
  <advance width="310"/>
  <unicode hex="003B"/>
  <outline>
    <contour>
      <point x="155" y="443" type="curve" smooth="yes"/>
      <point x="209" y="443"/>
      <point x="226" y="431"/>
      <point x="226" y="366" type="curve" smooth="yes"/>
      <point x="226" y="301"/>
      <point x="209" y="287"/>
      <point x="155" y="287" type="curve" smooth="yes"/>
      <point x="100" y="287"/>
      <point x="84" y="301"/>
      <point x="84" y="366" type="curve" smooth="yes"/>
      <point x="84" y="431"/>
      <point x="100" y="443"/>
    </contour>
    <contour>
      <point x="84" y="66" type="curve" smooth="yes"/>
      <point x="84" y="1"/>
      <point x="100" y="-13"/>
      <point x="155" y="-13" type="curve" smooth="yes"/>
      <point x="209" y="-13"/>
      <point x="226" y="1"/>
      <point x="226" y="66" type="curve" smooth="yes"/>
      <point x="226" y="131"/>
      <point x="209" y="143"/>
      <point x="155" y="143" type="curve" smooth="yes"/>
      <point x="100" y="143"/>
      <point x="84" y="131"/>
    </contour>
    <contour>
      <point x="148" y="-168" type="line"/>
      <point x="197" y="-168" type="line"/>
      <point x="226" y="-29" type="line"/>
      <point x="226" y="64" type="line"/>
      <point x="148" y="64" type="line"/>
    </contour>
  </outline>
</glyph>
<glyph name="equal" format="1">
  <advance width="500"/>
  <unicode hex="003D"/>
  <outline>
    <contour>
      <point x="47" y="461" type="line"/>
      <point x="47" y="374" type="line"/>
      <point x="460" y="374" type="line"/>
      <point x="460" y="461" type="line"/>
    </contour>
    <contour>
      <point x="47" y="271" type="line"/>
      <point x="47" y="184" type="line"/>
      <point x="460" y="184" type="line"/>
      <point x="460" y="271" type="line"/>
    </contour>
  </outline>
</glyph>
<glyph name="at" format="1">
  <advance width="754"/>
  <unicode hex="0040"/>
  <outline>
    <contour>
      <point x="577" y="0" type="line"/>
      <point x="739" y="0" type="line"/>
      <point x="739" y="47" type="line"/>
      <point x="675" y="75" type="line"/>
      <point x="675" y="355" type="line"/>
      <point x="675.0" y="669.457831325"/>
      <point x="642.0" y="790.0"/>
      <point x="389" y="790" type="curve"/>
      <point x="135" y="790"/>
      <point x="52" y="672"/>
      <point x="52" y="359" type="curve"/>
      <point x="52" y="39"/>
      <point x="154" y="-41"/>
      <point x="328" y="-41" type="curve" smooth="yes"/>
      <point x="434" y="-41"/>
      <point x="456" y="-27"/>
      <point x="502" y="-7" type="curve"/>
      <point x="502" y="64" type="line"/>
      <point x="464" y="47"/>
      <point x="434" y="43"/>
      <point x="357" y="43" type="curve" smooth="yes"/>
      <point x="188" y="43"/>
      <point x="154" y="133"/>
      <point x="154" y="353" type="curve" smooth="yes"/>
      <point x="154" y="604"/>
      <point x="176" y="708"/>
      <point x="381" y="708" type="curve"/>
      <point x="563.0" y="708.0"/>
      <point x="577.0" y="604.078549849"/>
      <point x="577" y="357" type="curve"/>
    </contour>
    <contour>
      <point x="608" y="431" type="curve"/>
      <point x="611" y="508" type="line"/>
      <point x="575" y="513"/>
      <point x="518" y="519"/>
      <point x="460" y="519" type="curve" smooth="yes"/>
      <point x="364" y="519"/>
      <point x="237" y="459"/>
      <point x="237" y="328" type="curve"/>
      <point x="237" y="236"/>
      <point x="283" y="144"/>
      <point x="400" y="144" type="curve"/>
      <point x="515" y="144"/>
      <point x="597" y="226"/>
      <point x="623" y="260" type="curve"/>
      <point x="618" y="345" type="line"/>
      <point x="600" y="309"/>
      <point x="484" y="228"/>
      <point x="412" y="228" type="curve"/>
      <point x="361" y="228"/>
      <point x="339" y="278"/>
      <point x="339" y="326" type="curve"/>
      <point x="339" y="387"/>
      <point x="381" y="442"/>
      <point x="466" y="442" type="curve" smooth="yes"/>
      <point x="511" y="442"/>
      <point x="567" y="438"/>
    </contour>
    <component base="serif-end-lc" xOffset="289"/>
  </outline>
</glyph>
<glyph name="A" format="1">
  <advance width="707"/>
  <unicode hex="0041"/>
  <outline>
    <contour>
      <point x="180" y="309" type="line"/>
      <point x="180" y="231" type="line"/>
      <point x="519" y="231" type="line"/>
      <point x="519" y="309" type="line"/>
    </contour>
    <contour>
      <point x="254" y="47" type="line"/>
      <point x="174" y="82" type="line"/>
      <point x="174" y="82" type="line"/>
      <point x="338" y="583" type="line"/>
      <point x="347" y="651" type="line"/>
      <point x="358" y="582" type="line"/>
      <point x="529" y="81" type="line"/>
      <point x="451" y="47" type="line"/>
      <point x="451" y="0" type="line"/>
      <point x="702" y="0" type="line"/>
      <point x="702" y="47" type="line"/>
      <point x="633" y="82" type="line"/>
      <point x="407" y="760" type="line"/>
      <point x="303" y="760" type="line"/>
      <point x="73" y="81" type="line"/>
      <point x="5" y="47" type="line"/>
      <point x="5" y="0" type="line"/>
      <point x="254" y="0" type="line"/>
    </contour>
  </outline>
</glyph>
<glyph name="B" format="1">
  <advance width="651"/>
  <unicode hex="0042"/>
  <outline>
    <contour>
      <point x="201" y="357" type="line"/>
      <point x="232" y="363"/>
      <point x="285" y="362"/>
      <point x="325" y="362" type="curve"/>
      <point x="439.0" y="362.0"/>
      <point x="489.0" y="331.40397351"/>
      <point x="489" y="208" type="curve"/>
      <point x="489.0" y="113.09352518"/>
      <point x="434.617346939" y="72.0"/>
      <point x="302" y="72" type="curve"/>
      <point x="257.382352941" y="72.0"/>
      <point x="215.875434702" y="76.0772774519"/>
      <point x="191" y="82" type="curve"/>
      <point x="230" y="47" type="line"/>
      <point x="230" y="690" type="line"/>
      <point x="193" y="668" type="line"/>
      <point x="221" y="680"/>
      <point x="272" y="686"/>
      <point x="333" y="686" type="curve"/>
      <point x="414" y="686"/>
      <point x="465" y="664"/>
      <point x="465" y="572" type="curve"/>
      <point x="465.0" y="463.609022556"/>
      <point x="419.0" y="436.0"/>
      <point x="335" y="436" type="curve"/>
      <point x="267" y="436"/>
      <point x="226" y="438"/>
      <point x="195" y="440" type="curve"/>
    </contour>
    <contour>
      <point x="347" y="0" type="line"/>
      <point x="500.230769231" y="0.0"/>
      <point x="596.0" y="66.0518867925"/>
      <point x="596" y="209" type="curve"/>
      <point x="596.0" y="378.505"/>
      <point x="514.0" y="412.0"/>
      <point x="372" y="412" type="curve"/>
      <point x="373" y="392" type="line"/>
      <point x="479.0" y="392.0"/>
      <point x="569.0" y="430.655172414"/>
      <point x="569" y="569" type="curve"/>
      <point x="569" y="722"/>
      <point x="475" y="757"/>
      <point x="345" y="757" type="curve" smooth="yes"/>
      <point x="286" y="757"/>
      <point x="131" y="752"/>
      <point x="59" y="750" type="curve"/>
      <point x="59" y="698" type="line"/>
      <point x="128" y="673" type="line"/>
      <point x="128" y="75" type="line" smooth="yes"/>
      <point x="61" y="40" type="line"/>
      <point x="61" y="0" type="line"/>
    </contour>
  </outline>
</glyph>
<glyph name="C" format="1">
  <advance width="599"/>
  <unicode hex="0043"/>
  <outline>
    <contour>
      <point x="365" y="693" type="curve"/>
      <point x="197.0" y="693.0"/>
      <point x="157.020336429" y="574.809942142"/>
      <point x="155" y="395" type="curve"/>
      <point x="155.0" y="205.736363636"/>
      <point x="181.0" y="68.0"/>
      <point x="356" y="68" type="curve" smooth="yes"/>
      <point x="459" y="68"/>
      <point x="501" y="110"/>
      <point x="527" y="135" type="curve"/>
      <point x="570" y="76" type="line"/>
      <point x="543" y="46"/>
      <point x="493" y="-16"/>
      <point x="331" y="-16" type="curve"/>
      <point x="86.0" y="-16.0"/>
      <point x="48.0" y="155.761336516"/>
      <point x="48" y="400" type="curve"/>
      <point x="48.0" y="641.961852861"/>
      <point x="134.0" y="770.0"/>
      <point x="347" y="770" type="curve" smooth="yes"/>
      <point x="438" y="770"/>
      <point x="495" y="757"/>
      <point x="563" y="715" type="curve"/>
      <point x="560" y="541" type="line"/>
      <point x="493" y="541" type="line"/>
      <point x="484.44894176" y="561.766855727"/>
      <point x="468" y="665"/>
      <point x="448" y="721" type="curve"/>
      <point x="532" y="640" type="line"/>
      <point x="479" y="662"/>
      <point x="471" y="693"/>
    </contour>
  </outline>
</glyph>
<glyph name="D" format="1">
  <advance width="717"/>
  <unicode hex="0044"/>
  <outline>
    <contour>
      <point x="556" y="126"/>
      <point x="488" y="79"/>
      <point x="354" y="79" type="curve"/>
      <point x="301.350993377" y="79.0"/>
      <point x="249" y="79"/>
      <point x="204" y="86" type="curve"/>
      <point x="232" y="59" type="line"/>
      <point x="232" y="705" type="line"/>
      <point x="203" y="669" type="line"/>
      <point x="252" y="675"/>
      <point x="293" y="683"/>
      <point x="353" y="683" type="curve" smooth="yes"/>
      <point x="462" y="683"/>
      <point x="556" y="661"/>
      <point x="556" y="393" type="curve"/>
    </contour>
    <contour>
      <point x="355" y="0" type="line"/>
      <point x="580" y="0"/>
      <point x="661.0" y="92.0"/>
      <point x="661" y="393" type="curve"/>
      <point x="661" y="723"/>
      <point x="546" y="757"/>
      <point x="365" y="757" type="curve" smooth="yes"/>
      <point x="302" y="757"/>
      <point x="137" y="752"/>
      <point x="60" y="750" type="curve"/>
      <point x="60" y="698" type="line"/>
      <point x="129" y="675" type="line"/>
      <point x="129" y="75" type="line" smooth="yes"/>
      <point x="62" y="40" type="line"/>
      <point x="62" y="0" type="line"/>
    </contour>
  </outline>
</glyph>
<glyph name="E" format="1">
  <advance width="609"/>
  <unicode hex="0045"/>
  <outline>
    <contour>
      <point x="158" y="431" type="line"/>
      <point x="478" y="431" type="line"/>
      <point x="478" y="350" type="line"/>
      <point x="158" y="350" type="line"/>
    </contour>
    <contour>
      <point x="564" y="169" type="line"/>
      <point x="548" y="0" type="line"/>
      <point x="45" y="0" type="line"/>
      <point x="45" y="45" type="line"/>
      <point x="115" y="79" type="line"/>
      <point x="115" y="675" type="line"/>
      <point x="45" y="705" type="line"/>
      <point x="45" y="750" type="line"/>
      <point x="544" y="750" type="line"/>
      <point x="558" y="585" type="line"/>
      <point x="499" y="585" type="line"/>
      <point x="465" y="671" type="line"/>
      <point x="219" y="671" type="line"/>
      <point x="219" y="79" type="line"/>
      <point x="469" y="79" type="line"/>
      <point x="508" y="169" type="line"/>
    </contour>
  </outline>
</glyph>
<glyph name="F" format="1">
  <advance width="545"/>
  <unicode hex="0046"/>
  <outline>
    <contour>
      <point x="158" y="408" type="line"/>
      <point x="460" y="408" type="line"/>
      <point x="460" y="328" type="line"/>
      <point x="158" y="328" type="line"/>
    </contour>
    <contour>
      <point x="342" y="0" type="line"/>
      <point x="45" y="0" type="line"/>
      <point x="45" y="45" type="line"/>
      <point x="115" y="79" type="line"/>
      <point x="115" y="675" type="line"/>
      <point x="45" y="705" type="line"/>
      <point x="45" y="750" type="line"/>
      <point x="515" y="750" type="line"/>
      <point x="529" y="590" type="line"/>
      <point x="471" y="590" type="line"/>
      <point x="437" y="671" type="line"/>
      <point x="219" y="671" type="line"/>
      <point x="219" y="79" type="line"/>
      <point x="342" y="45" type="line"/>
    </contour>
  </outline>
</glyph>
<glyph name="G" format="1">
  <advance width="664"/>
  <unicode hex="0047"/>
  <outline>
    <contour>
      <point x="597" y="47" type="curve"/>
      <point x="597" y="392" type="line"/>
      <point x="351" y="392" type="line"/>
      <point x="351" y="336" type="line"/>
      <point x="500" y="307" type="line"/>
      <point x="500" y="100" type="line"/>
      <point x="469" y="82"/>
      <point x="416" y="66"/>
      <point x="358" y="66" type="curve"/>
      <point x="194" y="66"/>
      <point x="167" y="181"/>
      <point x="167" y="398" type="curve"/>
      <point x="169" y="584"/>
      <point x="209" y="693"/>
      <point x="361" y="693" type="curve"/>
      <point x="414" y="693"/>
      <point x="449" y="684"/>
      <point x="504" y="660" type="curve"/>
      <point x="468" y="701" type="line"/>
      <point x="492.452510516" y="620.200400035"/>
      <point x="507" y="546"/>
      <point x="513" y="530" type="curve"/>
      <point x="580" y="530" type="line"/>
      <point x="583" y="715" type="line"/>
      <point x="513" y="758"/>
      <point x="438" y="770"/>
      <point x="343" y="770" type="curve" smooth="yes"/>
      <point x="144.0" y="770.0"/>
      <point x="60" y="650"/>
      <point x="60" y="400" type="curve"/>
      <point x="60" y="135"/>
      <point x="111.0" y="-18.0"/>
      <point x="333" y="-18" type="curve"/>
      <point x="459" y="-18"/>
      <point x="548" y="12"/>
    </contour>
  </outline>
</glyph>
<glyph name="H" format="1">
  <advance width="807"/>
  <unicode hex="0048"/>
  <outline>
    <contour>
      <point x="203" y="421" type="line"/>
      <point x="203" y="343" type="line"/>
      <point x="592" y="343" type="line"/>
      <point x="592" y="421" type="line"/>
    </contour>
    <contour>
      <point x="315" y="0" type="line"/>
      <point x="315" y="42" type="line"/>
      <point x="240" y="75" type="line"/>
      <point x="240" y="675" type="line"/>
      <point x="315" y="703" type="line"/>
      <point x="315" y="750" type="line"/>
      <point x="65" y="750" type="line"/>
      <point x="65" y="703" type="line"/>
      <point x="135" y="675" type="line"/>
      <point x="135" y="75" type="line"/>
      <point x="65" y="42" type="line"/>
      <point x="65" y="0" type="line"/>
    </contour>
    <contour>
      <point x="742" y="0" type="line"/>
      <point x="742" y="42" type="line"/>
      <point x="672" y="75" type="line"/>
      <point x="672" y="675" type="line"/>
      <point x="742" y="703" type="line"/>
      <point x="742" y="750" type="line"/>
      <point x="492" y="750" type="line"/>
      <point x="492" y="703" type="line"/>
      <point x="567" y="675" type="line"/>
      <point x="567" y="75" type="line"/>
      <point x="492" y="42" type="line"/>
      <point x="492" y="0" type="line"/>
    </contour>
  </outline>
</glyph>
<glyph name="J" format="1">
  <advance width="390"/>
  <unicode hex="004A"/>
  <outline>
    <contour>
      <point x="255.0" y="126.0" type="curve"/>
      <point x="255.0" y="675.0" type="line"/>
      <point x="325.0" y="703.0" type="line"/>
      <point x="325.0" y="750.0" type="line"/>
      <point x="53.0" y="750.0" type="line"/>
      <point x="53.0" y="703.0" type="line"/>
      <point x="153.0" y="675.0" type="line"/>
      <point x="153.0" y="136.0" type="line"/>
      <point x="153.0" y="47.0"/>
      <point x="136" y="-55"/>
      <point x="10.0" y="-55.0" type="curve"/>
      <point x="24" y="-128" type="line"/>
      <point x="201" y="-128"/>
      <point x="255.0" y="1.0"/>
    </contour>
  </outline>
</glyph>
<glyph name="K" format="1">
  <advance width="657"/>
  <unicode hex="004B"/>
  <outline>
    <contour>
      <point x="667" y="0" type="line"/>
      <point x="667" y="50" type="line"/>
      <point x="583" y="75" type="line"/>
      <point x="356" y="448" type="line"/>
      <point x="292" y="375" type="line"/>
      <point x="503" y="0" type="line"/>
    </contour>
    <contour>
      <point x="36" y="0" type="line"/>
      <point x="270" y="0" type="line"/>
      <point x="270" y="41" type="line"/>
      <point x="198" y="75" type="line"/>
      <point x="198" y="675" type="line"/>
      <point x="199" y="675" type="line"/>
      <point x="282" y="699" type="line"/>
      <point x="282" y="750" type="line"/>
      <point x="29" y="750" type="line"/>
      <point x="29" y="699" type="line"/>
      <point x="99" y="675" type="line"/>
      <point x="99" y="75" type="line"/>
      <point x="36" y="41" type="line"/>
    </contour>
    <contour>
      <point x="168" y="206" type="line"/>
      <point x="567" y="675" type="line"/>
      <point x="636" y="695" type="line"/>
      <point x="636" y="750" type="line"/>
      <point x="403" y="750" type="line"/>
      <point x="403" y="701" type="line"/>
      <point x="454" y="675" type="line"/>
      <point x="454" y="675" type="line"/>
      <point x="140" y="301" type="line"/>
    </contour>
  </outline>
</glyph>
<glyph name="L" format="1">
  <advance width="520"/>
  <unicode hex="004C"/>
  <outline>
    <contour>
      <point x="493" y="209" type="line"/>
      <point x="433" y="209" type="line"/>
      <point x="396" y="79" type="line"/>
      <point x="217" y="79" type="line"/>
      <point x="217" y="675" type="line"/>
      <point x="219" y="675" type="line"/>
      <point x="322" y="699" type="line"/>
      <point x="322" y="750" type="line"/>
      <point x="46" y="750" type="line"/>
      <point x="46" y="699" type="line"/>
      <point x="115" y="675" type="line"/>
      <point x="115" y="79" type="line"/>
      <point x="45" y="45" type="line"/>
      <point x="45" y="0" type="line"/>
      <point x="479" y="0" type="line"/>
    </contour>
  </outline>
</glyph>
<glyph name="M" format="1">
  <advance width="964"/>
  <unicode hex="004D"/>
  <outline>
    <contour>
      <point x="280" y="41" type="line"/>
      <point x="215" y="75" type="line"/>
      <point x="239" y="498" type="line"/>
      <point x="236" y="643" type="line"/>
      <point x="265" y="503" type="line"/>
      <point x="431" y="20" type="line"/>
      <point x="525" y="20" type="line"/>
      <point x="698" y="500" type="line"/>
      <point x="729" y="641" type="line"/>
      <point x="720" y="497" type="line"/>
      <point x="743" y="75" type="line"/>
      <point x="672" y="41" type="line"/>
      <point x="672" y="0" type="line"/>
      <point x="925" y="0" type="line"/>
      <point x="925" y="41" type="line"/>
      <point x="846" y="75" type="line"/>
      <point x="812" y="675" type="line"/>
      <point x="885" y="709" type="line"/>
      <point x="885" y="750" type="line"/>
      <point x="689" y="750" type="line"/>
      <point x="477" y="135" type="line"/>
      <point x="497" y="135" type="line"/>
      <point x="283" y="750" type="line"/>
      <point x="80" y="750" type="line"/>
      <point x="80" y="709" type="line"/>
      <point x="153" y="675" type="line"/>
      <point x="119" y="75" type="line"/>
      <point x="40" y="41" type="line"/>
      <point x="40" y="0" type="line"/>
      <point x="280" y="0" type="line"/>
    </contour>
  </outline>
</glyph>
<glyph name="N" format="1">
  <advance width="787"/>
  <unicode hex="004E"/>
  <outline>
    <contour>
      <point x="299" y="41" type="line"/>
      <point x="224" y="76" type="line"/>
      <point x="224" y="476" type="line"/>
      <point x="208" y="581" type="line"/>
      <point x="257" y="498" type="line"/>
      <point x="574" y="0" type="line"/>
      <point x="667" y="0" type="line"/>
      <point x="667" y="675" type="line"/>
      <point x="742" y="709" type="line"/>
      <point x="742" y="750" type="line"/>
      <point x="499" y="750" type="line"/>
      <point x="499" y="709" type="line"/>
      <point x="574" y="675" type="line"/>
      <point x="574" y="259" type="line"/>
      <point x="588" y="165" type="line"/>
      <point x="546" y="237" type="line"/>
      <point x="230" y="750" type="line"/>
      <point x="55" y="750" type="line"/>
      <point x="55" y="709" type="line"/>
      <point x="130" y="675" type="line"/>
      <point x="130" y="76" type="line"/>
      <point x="55" y="41" type="line"/>
      <point x="55" y="0" type="line"/>
      <point x="299" y="0" type="line"/>
    </contour>
  </outline>
</glyph>
<glyph name="O" format="1">
  <advance width="698"/>
  <unicode hex="004F"/>
  <outline>
    <contour>
      <point x="349" y="773" type="curve" smooth="yes"/>
      <point x="581" y="773"/>
      <point x="650" y="640"/>
      <point x="650" y="377" type="curve" smooth="yes"/>
      <point x="650" y="108"/>
      <point x="585" y="-19"/>
      <point x="349" y="-19" type="curve" smooth="yes"/>
      <point x="117" y="-19"/>
      <point x="48" y="108"/>
      <point x="48" y="377" type="curve" smooth="yes"/>
      <point x="48" y="640"/>
      <point x="117" y="773"/>
    </contour>
    <contour>
      <point x="349" y="62" type="curve" smooth="yes"/>
      <point x="511.870466321" y="62.0"/>
      <point x="535.0" y="177.0"/>
      <point x="535" y="377" type="curve" smooth="yes"/>
      <point x="535.0" y="571.0"/>
      <point x="515.729166666" y="697.0"/>
      <point x="350" y="697" type="curve" smooth="yes"/>
      <point x="187.097938144" y="697.0"/>
      <point x="163.0" y="571.0"/>
      <point x="163" y="377" type="curve" smooth="yes"/>
      <point x="163.0" y="177.0"/>
      <point x="186.129533679" y="62.0"/>
    </contour>
  </outline>
</glyph>
<glyph name="P" format="1">
  <advance width="637"/>
  <unicode hex="0050"/>
  <outline>
    <contour>
      <point x="201" y="269" type="line"/>
      <point x="364" y="269" type="line"/>
      <point x="507" y="269"/>
      <point x="577" y="360"/>
      <point x="577" y="535" type="curve"/>
      <point x="577" y="725"/>
      <point x="487" y="757"/>
      <point x="330" y="757" type="curve" smooth="yes"/>
      <point x="271" y="757"/>
      <point x="132" y="752"/>
      <point x="60" y="750" type="curve"/>
      <point x="60" y="698" type="line"/>
      <point x="129" y="673" type="line"/>
      <point x="129" y="75" type="line" smooth="yes"/>
      <point x="62" y="44" type="line"/>
      <point x="62" y="0" type="line"/>
      <point x="318" y="0" type="line"/>
      <point x="315" y="44" type="line"/>
      <point x="230" y="77" type="line"/>
      <point x="230" y="712" type="line"/>
      <point x="192" y="680" type="line"/>
      <point x="222" y="681"/>
      <point x="282" y="683"/>
      <point x="343" y="683" type="curve"/>
      <point x="440" y="683"/>
      <point x="479" y="637"/>
      <point x="479" y="535" type="curve"/>
      <point x="479" y="402"/>
      <point x="451" y="350"/>
      <point x="345" y="350" type="curve"/>
      <point x="195" y="350" type="line"/>
    </contour>
  </outline>
</glyph>
<glyph name="Q" format="1">
  <advance width="698"/>
  <unicode hex="0051"/>
  <outline>
    <contour>
      <point x="227" y="45" type="curve"/>
      <point x="168" y="86" type="line"/>
      <point x="168" y="209"/>
      <point x="203" y="325"/>
      <point x="348" y="325" type="curve"/>
      <point x="449" y="325"/>
      <point x="514" y="233"/>
      <point x="514" y="134" type="curve" smooth="yes"/>
      <point x="514" y="118"/>
      <point x="517" y="102"/>
      <point x="517" y="86" type="curve"/>
      <point x="517" y="20"/>
      <point x="533" y="-32"/>
      <point x="578" y="-32" type="curve" smooth="yes"/>
      <point x="594" y="-32"/>
      <point x="610" y="-32"/>
      <point x="630" y="-32" type="curve"/>
      <point x="630" y="-114" type="line"/>
      <point x="607" y="-114"/>
      <point x="587" y="-115"/>
      <point x="570" y="-113" type="curve"/>
      <point x="487" y="-113"/>
      <point x="453" y="-64"/>
      <point x="453" y="21" type="curve"/>
      <point x="453" y="41"/>
      <point x="453" y="60"/>
      <point x="452" y="79" type="curve" smooth="yes"/>
      <point x="446" y="179"/>
      <point x="417" y="246"/>
      <point x="350" y="246" type="curve"/>
      <point x="261" y="246"/>
      <point x="227" y="167"/>
    </contour>
    <component base="O"/>
  </outline>
</glyph>
<glyph name="R" format="1">
  <advance width="675"/>
  <unicode hex="0052"/>
  <outline>
    <contour>
      <point x="205" y="390" type="line"/>
      <point x="211" y="310" type="line"/>
      <point x="398" y="310" type="line"/>
      <point x="541" y="310"/>
      <point x="604" y="398"/>
      <point x="604" y="550" type="curve"/>
      <point x="604" y="727"/>
      <point x="505" y="757"/>
      <point x="375" y="757" type="curve" smooth="yes"/>
      <point x="316" y="757"/>
      <point x="138" y="752"/>
      <point x="66" y="750" type="curve"/>
      <point x="66" y="698" type="line"/>
      <point x="135" y="673" type="line"/>
      <point x="135" y="75" type="line" smooth="yes"/>
      <point x="68" y="44" type="line"/>
      <point x="68" y="0" type="line"/>
      <point x="314" y="0" type="line"/>
      <point x="314" y="44" type="line"/>
      <point x="240" y="77" type="line"/>
      <point x="240" y="712" type="line"/>
      <point x="202" y="680" type="line"/>
      <point x="232" y="679"/>
      <point x="302" y="683"/>
      <point x="368" y="683" type="curve"/>
      <point x="463" y="683"/>
      <point x="497" y="638"/>
      <point x="497" y="541" type="curve"/>
      <point x="497" y="440"/>
      <point x="454" y="390"/>
      <point x="367" y="390" type="curve"/>
    </contour>
    <contour>
      <point x="674" y="0" type="line"/>
      <point x="674" y="41" type="line"/>
      <point x="599" y="76" type="line"/>
      <point x="454" y="346" type="line"/>
      <point x="364" y="316" type="line"/>
      <point x="521" y="0" type="line"/>
    </contour>
  </outline>
</glyph>
<glyph name="S" format="1">
  <advance width="634"/>
  <unicode hex="0053"/>
  <outline>
    <contour>
      <point x="329" y="436" type="curve" smooth="yes"/>
      <point x="203.249592902" y="465.940573119"/>
      <point x="181" y="492"/>
      <point x="181" y="564" type="curve"/>
      <point x="181" y="636"/>
      <point x="221" y="690"/>
      <point x="325" y="690" type="curve"/>
      <point x="390.0" y="690.0"/>
      <point x="431" y="676"/>
      <point x="440" y="664" type="curve"/>
      <point x="466" y="546" type="line"/>
      <point x="541" y="546" type="line"/>
      <point x="541" y="705" type="line"/>
      <point x="534" y="718"/>
      <point x="488" y="771"/>
      <point x="330" y="771" type="curve"/>
      <point x="155" y="771"/>
      <point x="85" y="686"/>
      <point x="85" y="557" type="curve"/>
      <point x="85.0" y="435.258064516"/>
      <point x="132" y="372"/>
      <point x="290" y="335" type="curve" smooth="yes"/>
      <point x="416" y="306"/>
      <point x="469" y="285"/>
      <point x="469" y="196" type="curve"/>
      <point x="469" y="104"/>
      <point x="431" y="68"/>
      <point x="325" y="68" type="curve"/>
      <point x="235.0" y="68.0"/>
      <point x="196" y="97"/>
      <point x="190" y="101" type="curve"/>
      <point x="162" y="232" type="line"/>
      <point x="84" y="232" type="line"/>
      <point x="84" y="55" type="line"/>
      <point x="94" y="45"/>
      <point x="152" y="-15"/>
      <point x="324" y="-15" type="curve"/>
      <point x="474" y="-15"/>
      <point x="570" y="30"/>
      <point x="570" y="202" type="curve"/>
      <point x="570.0" y="359.362445415"/>
      <point x="480.179147791" y="399.957289268"/>
    </contour>
  </outline>
</glyph>
<glyph name="T" format="1">
  <advance width="594"/>
  <unicode hex="0054"/>
  <outline>
    <contour>
      <point x="147" y="0" type="line"/>
      <point x="447" y="0" type="line"/>
      <point x="447" y="49" type="line"/>
      <point x="349" y="79" type="line"/>
      <point x="349" y="680" type="line"/>
      <point x="488" y="680" type="line"/>
      <point x="518" y="529" type="line"/>
      <point x="584" y="529" type="line"/>
      <point x="584" y="750" type="line"/>
      <point x="10" y="750" type="line"/>
      <point x="10" y="529" type="line"/>
      <point x="76" y="529" type="line"/>
      <point x="106" y="680" type="line"/>
      <point x="245" y="680" type="line"/>
      <point x="245" y="79" type="line"/>
      <point x="147" y="49" type="line"/>
    </contour>
  </outline>
</glyph>
<glyph name="U" format="1">
  <advance width="706"/>
  <unicode hex="0055"/>
  <outline>
    <contour>
      <point x="353" y="-19" type="curve" smooth="yes"/>
      <point x="548" y="-19"/>
      <point x="622" y="96"/>
      <point x="622" y="226" type="curve"/>
      <point x="622" y="675" type="line"/>
      <point x="692" y="703" type="line"/>
      <point x="692" y="750" type="line"/>
      <point x="446" y="750" type="line"/>
      <point x="446" y="703" type="line"/>
      <point x="526" y="675" type="line"/>
      <point x="526" y="246" type="line"/>
      <point x="526" y="156"/>
      <point x="485" y="65"/>
      <point x="353" y="65" type="curve" smooth="yes"/>
      <point x="221" y="65"/>
      <point x="189" y="155"/>
      <point x="189" y="246" type="curve"/>
      <point x="189" y="675" type="line"/>
      <point x="269" y="703" type="line"/>
      <point x="269" y="750" type="line"/>
      <point x="14" y="750" type="line"/>
      <point x="14" y="703" type="line"/>
      <point x="84" y="675" type="line"/>
      <point x="84" y="226" type="line"/>
      <point x="84" y="95"/>
      <point x="158" y="-19"/>
    </contour>
  </outline>
</glyph>
<glyph name="V" format="1">
  <advance width="660"/>
  <unicode hex="0056"/>
  <outline>
    <contour>
      <point x="670" y="703" type="line"/>
      <point x="670" y="750" type="line"/>
      <point x="430" y="750" type="line"/>
      <point x="430" y="703" type="line"/>
      <point x="512" y="676" type="line"/>
      <point x="337" y="149" type="line"/>
      <point x="328" y="117" type="line"/>
      <point x="317" y="149" type="line"/>
      <point x="153" y="676" type="line"/>
      <point x="233" y="703" type="line"/>
      <point x="233" y="750" type="line"/>
      <point x="-20" y="750" type="line"/>
      <point x="-20" y="703" type="line"/>
      <point x="35" y="678" type="line"/>
      <point x="266" y="0" type="line"/>
      <point x="374" y="0" type="line"/>
      <point x="615" y="678" type="line"/>
    </contour>
  </outline>
</glyph>
<glyph name="W" format="1">
  <advance width="1019"/>
  <unicode hex="0057"/>
  <outline>
    <contour>
      <point x="666" y="0" type="line"/>
      <point x="784" y="0" type="line"/>
      <point x="955" y="676" type="line"/>
      <point x="1009" y="703" type="line"/>
      <point x="1009" y="750" type="line"/>
      <point x="771" y="750" type="line"/>
      <point x="771" y="703" type="line"/>
      <point x="860" y="676" type="line"/>
      <point x="741" y="164" type="line"/>
      <point x="732" y="121" type="line"/>
      <point x="723" y="164" type="line"/>
      <point x="554" y="726" type="line"/>
      <point x="477" y="726" type="line"/>
      <point x="301" y="164" type="line"/>
      <point x="292" y="120" type="line"/>
      <point x="282" y="164" type="line"/>
      <point x="173" y="676" type="line"/>
      <point x="260" y="703" type="line"/>
      <point x="260" y="750" type="line"/>
      <point x="10" y="750" type="line"/>
      <point x="10" y="703" type="line"/>
      <point x="64" y="677" type="line"/>
      <point x="221" y="0" type="line"/>
      <point x="337" y="0" type="line"/>
      <point x="508" y="552" type="line"/>
    </contour>
  </outline>
</glyph>
<glyph name="X" format="1">
  <advance width="682"/>
  <unicode hex="0058"/>
  <outline>
    <contour>
      <point x="380" y="357" type="line"/>
      <point x="590" y="677" type="line"/>
      <point x="662" y="702" type="line"/>
      <point x="662" y="750" type="line"/>
      <point x="447" y="750" type="line"/>
      <point x="447" y="701" type="line"/>
      <point x="488" y="677" type="line"/>
      <point x="315" y="405" type="line"/>
    </contour>
    <contour>
      <point x="0" y="0" type="line"/>
      <point x="225" y="0" type="line"/>
      <point x="225" y="49" type="line"/>
      <point x="181" y="75" type="line"/>
      <point x="367" y="391" type="line"/>
      <point x="300" y="442" type="line"/>
      <point x="74" y="75" type="line"/>
      <point x="0" y="49" type="line"/>
    </contour>
    <contour>
      <point x="497" y="75" type="line"/>
      <point x="453" y="49" type="line"/>
      <point x="453" y="0" type="line"/>
      <point x="682" y="0" type="line"/>
      <point x="682" y="49" type="line"/>
      <point x="618" y="75" type="line"/>
      <point x="401" y="405" type="line"/>
      <point x="356" y="428" type="line"/>
      <point x="206" y="677" type="line"/>
      <point x="244" y="701" type="line"/>
      <point x="244" y="750" type="line"/>
      <point x="20" y="750" type="line"/>
      <point x="20" y="701" type="line"/>
      <point x="80" y="677" type="line"/>
      <point x="270" y="375" type="line"/>
      <point x="309" y="362" type="line"/>
    </contour>
  </outline>
</glyph>
<glyph name="Y" format="1">
  <advance width="677"/>
  <unicode hex="0059"/>
  <outline>
    <contour>
      <point x="461" y="41" type="line"/>
      <point x="386" y="76" type="line"/>
      <point x="386" y="242" type="line"/>
      <point x="604" y="675" type="line"/>
      <point x="673" y="703" type="line"/>
      <point x="673" y="750" type="line"/>
      <point x="427" y="750" type="line"/>
      <point x="427" y="703" type="line"/>
      <point x="501" y="675" type="line"/>
      <point x="351" y="363" type="line"/>
      <point x="339" y="298" type="line"/>
      <point x="328" y="363" type="line"/>
      <point x="198" y="675" type="line"/>
      <point x="268" y="703" type="line"/>
      <point x="268" y="750" type="line"/>
      <point x="10" y="750" type="line"/>
      <point x="10" y="703" type="line"/>
      <point x="80" y="675" type="line"/>
      <point x="277" y="242" type="line"/>
      <point x="277" y="76" type="line"/>
      <point x="202" y="41" type="line"/>
      <point x="202" y="0" type="line"/>
      <point x="461" y="0" type="line"/>
    </contour>
  </outline>
</glyph>
<glyph name="Z" format="1">
  <advance width="615"/>
  <unicode hex="005A"/>
  <outline>
    <contour>
      <point x="473" y="82" type="line"/>
      <point x="505" y="238" type="line"/>
      <point x="573" y="238" type="line"/>
      <point x="571" y="0" type="line"/>
      <point x="54" y="0" type="line"/>
      <point x="52" y="68" type="line"/>
      <point x="453" y="677" type="line"/>
      <point x="466" y="669" type="line"/>
      <point x="165" y="669" type="line"/>
      <point x="138" y="515" type="line"/>
      <point x="72" y="515" type="line"/>
      <point x="72" y="750" type="line"/>
      <point x="570" y="750" type="line"/>
      <point x="570" y="673" type="line"/>
      <point x="174" y="70" type="line"/>
      <point x="173" y="82" type="line"/>
    </contour>
  </outline>
</glyph>
<glyph name="bracketleft" format="1">
  <advance width="307"/>
  <unicode hex="005B"/>
  <outline>
    <contour>
      <point x="287" y="-70" type="line"/>
      <point x="287" y="-29" type="line"/>
      <point x="200" y="6" type="line"/>
      <point x="137" y="6" type="line"/>
      <point x="137" y="775" type="line"/>
      <point x="200" y="777" type="line"/>
      <point x="287" y="809" type="line"/>
      <point x="287" y="850" type="line"/>
      <point x="40" y="850" type="line"/>
      <point x="40" y="-70" type="line"/>
    </contour>
  </outline>
</glyph>
<glyph name="backslash" format="1">
  <advance width="625"/>
  <unicode hex="005C"/>
  <outline>
    <contour>
      <point x="581" y="-3" type="line"/>
      <point x="143" y="846" type="line"/>
      <point x="56" y="797" type="line"/>
      <point x="493" y="-52" type="line"/>
    </contour>
  </outline>
</glyph>
<glyph name="bracketright" format="1">
  <advance width="415"/>
  <unicode hex="005D"/>
  <outline>
    <contour>
      <point x="84" y="-70" type="line"/>
      <point x="331" y="-70" type="line"/>
      <point x="331" y="850" type="line"/>
      <point x="84" y="850" type="line"/>
      <point x="84" y="809" type="line"/>
      <point x="171" y="777" type="line"/>
      <point x="234" y="775" type="line"/>
      <point x="234" y="6" type="line"/>
      <point x="171" y="6" type="line"/>
      <point x="84" y="-29" type="line"/>
    </contour>
  </outline>
</glyph>
<glyph name="asciicircum" format="1">
  <advance width="500"/>
  <unicode hex="005E"/>
  <outline>
    <contour>
      <point x="303" y="837" type="line"/>
      <point x="447" y="552" type="line"/>
      <point x="383" y="525" type="line"/>
      <point x="240" y="820" type="line"/>
      <point x="291" y="820" type="line"/>
      <point x="147" y="525" type="line"/>
      <point x="83" y="552" type="line"/>
      <point x="227" y="837" type="line"/>
    </contour>
  </outline>
</glyph>
<glyph name="grave" format="1">
  <advance width="614"/>
  <unicode hex="0060"/>
  <outline>
    <component base="acute" xScale="-1" xOffset="658"/>
    <contour>
      <point x="307" y="603" type="move" name="_top"/>
    </contour>
  </outline>
</glyph>
<glyph name="c" format="1">
  <advance width="543"/>
  <unicode hex="0063"/>
  <outline>
    <contour>
      <point x="421" y="366" type="line"/>
      <point x="402" y="444" type="line"/>
      <point x="385" y="459"/>
      <point x="359" y="467"/>
      <point x="323" y="467" type="curve" smooth="yes"/>
      <point x="208" y="467"/>
      <point x="163" y="391"/>
      <point x="163" y="264" type="curve" smooth="yes"/>
      <point x="163" y="137"/>
      <point x="200" y="63"/>
      <point x="318" y="63" type="curve"/>
      <point x="396" y="63"/>
      <point x="441" y="94"/>
      <point x="466" y="115" type="curve"/>
      <point x="501" y="42" type="line"/>
      <point x="462" y="17"/>
      <point x="408" y="-17"/>
      <point x="318" y="-17" type="curve"/>
      <point x="121" y="-17"/>
      <point x="60" y="84"/>
      <point x="60" y="264" type="curve" smooth="yes"/>
      <point x="60" y="444"/>
      <point x="148" y="545"/>
      <point x="323" y="545" type="curve" smooth="yes"/>
      <point x="381" y="545"/>
      <point x="453" y="523"/>
      <point x="491" y="500" type="curve"/>
      <point x="491" y="366" type="line"/>
    </contour>
  </outline>
</glyph>
<glyph name="d" format="1">
  <advance width="635"/>
  <unicode hex="0064"/>
  <outline>
    <contour>
      <point x="491" y="441" type="curve"/>
      <point x="457" y="403" type="line"/>
      <point x="436" y="437"/>
      <point x="389" y="471"/>
      <point x="297" y="471" type="curve"/>
      <point x="185" y="471"/>
      <point x="164" y="385"/>
      <point x="164" y="263" type="curve" smooth="yes"/>
      <point x="164" y="146"/>
      <point x="205" y="61"/>
      <point x="277" y="61" type="curve"/>
      <point x="371" y="61"/>
      <point x="421" y="126"/>
      <point x="457" y="191" type="curve"/>
      <point x="481" y="140" type="line"/>
      <point x="458" y="100"/>
      <point x="408" y="-16"/>
      <point x="255" y="-16" type="curve"/>
      <point x="135" y="-16"/>
      <point x="60" y="81"/>
      <point x="60" y="263" type="curve" smooth="yes"/>
      <point x="60" y="448"/>
      <point x="115" y="548"/>
      <point x="276" y="548" type="curve"/>
      <point x="413" y="548"/>
      <point x="462" y="486"/>
    </contour>
    <contour>
      <point x="452" y="1" type="line"/>
      <point x="438" y="114" type="line"/>
      <point x="438" y="714" type="line"/>
      <point x="368" y="749" type="line"/>
      <point x="368" y="800" type="line"/>
      <point x="535" y="800" type="line"/>
      <point x="535" y="88" type="line"/>
      <point x="596" y="47" type="line"/>
      <point x="596" y="1" type="line"/>
    </contour>
  </outline>
</glyph>
<glyph name="e" format="1">
  <advance width="573"/>
  <unicode hex="0065"/>
  <outline>
    <contour>
      <point x="297" y="-16" type="curve"/>
      <point x="396" y="-16"/>
      <point x="461" y="12"/>
      <point x="500" y="37" type="curve"/>
      <point x="465" y="112" type="line"/>
      <point x="440" y="91"/>
      <point x="395" y="64"/>
      <point x="309" y="64" type="curve"/>
      <point x="192" y="64"/>
      <point x="163" y="117"/>
      <point x="163" y="264" type="curve" smooth="yes"/>
      <point x="163" y="421"/>
      <point x="196" y="467"/>
      <point x="301" y="467" type="curve"/>
      <point x="398" y="467"/>
      <point x="421" y="409"/>
      <point x="421" y="361" type="curve"/>
      <point x="421.0" y="339.0"/>
      <point x="420.481612621" y="311.408063103"/>
      <point x="415" y="284" type="curve"/>
      <point x="449" y="314" type="line"/>
      <point x="119" y="314" type="line"/>
      <point x="121" y="234" type="line"/>
      <point x="507" y="234" type="line"/>
      <point x="509" y="243"/>
      <point x="513" y="287"/>
      <point x="513" y="324" type="curve"/>
      <point x="511.967292754" y="430.368846361"/>
      <point x="497.0" y="545.0"/>
      <point x="307" y="545" type="curve"/>
      <point x="132" y="545"/>
      <point x="60" y="454"/>
      <point x="60" y="264" type="curve" smooth="yes"/>
      <point x="60" y="65"/>
      <point x="127" y="-16"/>
    </contour>
  </outline>
</glyph>
<glyph name="f" format="1">
  <advance width="373"/>
  <unicode hex="0066"/>
  <outline>
    <contour>
      <point x="49" y="524" type="line"/>
      <point x="338" y="524" type="line"/>
      <point x="338" y="456" type="line"/>
      <point x="49" y="456" type="line"/>
    </contour>
    <contour>
      <point x="320" y="0" type="line"/>
      <point x="59" y="0" type="line"/>
      <point x="59" y="49" type="line"/>
      <point x="113" y="75" type="line"/>
      <point x="113" y="602" type="line"/>
      <point x="113" y="777"/>
      <point x="177" y="812"/>
      <point x="285" y="812" type="curve"/>
      <point x="353" y="812"/>
      <point x="403" y="791"/>
      <point x="414" y="780" type="curve"/>
      <point x="414" y="658" type="line"/>
      <point x="359" y="658" type="line"/>
      <point x="342" y="734" type="line"/>
      <point x="327.566427517" y="742.66014349"/>
      <point x="314.5" y="748.0"/>
      <point x="287" y="748" type="curve"/>
      <point x="226" y="748"/>
      <point x="212" y="706"/>
      <point x="212" y="595" type="curve"/>
      <point x="212" y="75" type="line"/>
      <point x="320" y="49" type="line"/>
    </contour>
  </outline>
</glyph>
<glyph name="h" format="1">
  <advance width="681"/>
  <unicode hex="0068"/>
  <outline>
    <contour>
      <point x="211" y="428" type="line"/>
      <point x="211" y="800" type="line"/>
      <point x="36" y="800" type="line"/>
      <point x="36" y="749" type="line"/>
      <point x="117" y="714" type="line"/>
      <point x="117" y="75" type="line"/>
      <point x="75" y="49" type="line"/>
      <point x="75" y="0" type="line"/>
      <point x="316" y="0" type="line"/>
      <point x="316" y="49" type="line"/>
      <point x="216" y="75" type="line"/>
      <point x="216" y="392" type="line"/>
    </contour>
    <contour>
      <point x="194" y="314" type="line"/>
      <point x="217" y="373"/>
      <point x="272.4875" y="454.0"/>
      <point x="376" y="454" type="curve"/>
      <point x="450" y="454"/>
      <point x="472" y="421"/>
      <point x="472" y="299" type="curve" smooth="yes"/>
      <point x="472" y="74" type="line"/>
      <point x="427" y="49" type="line"/>
      <point x="427" y="0" type="line"/>
      <point x="649" y="0" type="line"/>
      <point x="649" y="49" type="line"/>
      <point x="573" y="75" type="line"/>
      <point x="572" y="75" type="line"/>
      <point x="572" y="340" type="line"/>
      <point x="572" y="478"/>
      <point x="522" y="538"/>
      <point x="404" y="538" type="curve"/>
      <point x="288.14507772" y="538.0"/>
      <point x="228" y="482"/>
      <point x="189" y="431" type="curve"/>
    </contour>
  </outline>
</glyph>
<glyph name="i" format="1">
  <advance width="339"/>
  <unicode hex="0069"/>
  <outline>
    <contour>
      <point x="161" y="783" type="curve" smooth="yes"/>
      <point x="220" y="783"/>
      <point x="227" y="773"/>
      <point x="227" y="713" type="curve" smooth="yes"/>
      <point x="227" y="654"/>
      <point x="220" y="641"/>
      <point x="161" y="641" type="curve" smooth="yes"/>
      <point x="101" y="641"/>
      <point x="95" y="654"/>
      <point x="95" y="713" type="curve" smooth="yes"/>
      <point x="95" y="773"/>
      <point x="101" y="783"/>
    </contour>
    <contour>
      <point x="74" y="0" type="line"/>
      <point x="296" y="0" type="line"/>
      <point x="296" y="49" type="line"/>
      <point x="220" y="75" type="line"/>
      <point x="219" y="75" type="line"/>
      <point x="219" y="525" type="line"/>
      <point x="60" y="525" type="line"/>
      <point x="60" y="474" type="line"/>
      <point x="120" y="444" type="line"/>
      <point x="120" y="74" type="line"/>
      <point x="74" y="49" type="line"/>
    </contour>
  </outline>
</glyph>
<glyph name="j" format="1">
  <advance width="297"/>
  <unicode hex="006A"/>
  <outline>
    <contour>
      <point x="147" y="793" type="curve" smooth="yes"/>
      <point x="201" y="793"/>
      <point x="208" y="781"/>
      <point x="208" y="716" type="curve" smooth="yes"/>
      <point x="208" y="651"/>
      <point x="201" y="637"/>
      <point x="147" y="637" type="curve" smooth="yes"/>
      <point x="92" y="637"/>
      <point x="86" y="651"/>
      <point x="86" y="716" type="curve" smooth="yes"/>
      <point x="86" y="781"/>
      <point x="92" y="793"/>
    </contour>
    <contour>
      <point x="-6" y="-202" type="line"/>
      <point x="87" y="-202"/>
      <point x="202" y="-169"/>
      <point x="202" y="9" type="curve"/>
      <point x="202" y="525" type="line"/>
      <point x="35" y="525" type="line"/>
      <point x="35" y="474" type="line"/>
      <point x="106" y="439" type="line"/>
      <point x="106" y="20" type="line"/>
      <point x="106" y="-86"/>
      <point x="51" y="-130"/>
      <point x="-6" y="-130" type="curve"/>
    </contour>
  </outline>
</glyph>
<glyph name="k" format="1">
  <advance width="603"/>
  <unicode hex="006B"/>
  <outline>
    <contour>
      <point x="577" y="0" type="line"/>
      <point x="577" y="50" type="line"/>
      <point x="509" y="75" type="line"/>
      <point x="355" y="352" type="line"/>
      <point x="284" y="305" type="line"/>
      <point x="443" y="0" type="line"/>
    </contour>
    <contour>
      <point x="184" y="201" type="line"/>
      <point x="543" y="476" type="line"/>
      <point x="543" y="525" type="line"/>
      <point x="340" y="525" type="line"/>
      <point x="340" y="476" type="line"/>
      <point x="403" y="460" type="line"/>
      <point x="163" y="268" type="line"/>
    </contour>
    <contour>
      <point x="52" y="0" type="line"/>
      <point x="274" y="0" type="line"/>
      <point x="274" y="49" type="line"/>
      <point x="198" y="75" type="line"/>
      <point x="198" y="800" type="line"/>
      <point x="28" y="800" type="line"/>
      <point x="28" y="749" type="line"/>
      <point x="99" y="714" type="line"/>
      <point x="99" y="75" type="line"/>
      <point x="52" y="49" type="line"/>
    </contour>
  </outline>
</glyph>
<glyph name="l" format="1">
  <advance width="326"/>
  <unicode hex="006C"/>
  <outline>
    <contour>
      <point x="63" y="0" type="line"/>
      <point x="285" y="0" type="line"/>
      <point x="285" y="49" type="line"/>
      <point x="209" y="75" type="line"/>
      <point x="208" y="75" type="line"/>
      <point x="208" y="800" type="line"/>
      <point x="42" y="800" type="line"/>
      <point x="42" y="749" type="line"/>
      <point x="110" y="715" type="line"/>
      <point x="110" y="75" type="line"/>
      <point x="63" y="49" type="line"/>
    </contour>
  </outline>
</glyph>
<glyph name="m" format="1">
  <advance width="1010"/>
  <unicode hex="006D"/>
  <outline>
    <contour>
      <point x="548" y="334" type="line"/>
      <point x="569.957040721" y="397.875027552"/>
      <point x="625.527950311" y="454.0"/>
      <point x="706" y="454" type="curve"/>
      <point x="777" y="454"/>
      <point x="796" y="411"/>
      <point x="796" y="306" type="curve" smooth="yes"/>
      <point x="796" y="73" type="line"/>
      <point x="753" y="49" type="line"/>
      <point x="753" y="0" type="line"/>
      <point x="975" y="0" type="line"/>
      <point x="975" y="49" type="line"/>
      <point x="896" y="75" type="line"/>
      <point x="896" y="341" type="line"/>
      <point x="896" y="474"/>
      <point x="863" y="537"/>
      <point x="730" y="537" type="curve" smooth="yes"/>
      <point x="633.330316742" y="537.0"/>
      <point x="557.859292877" y="486.739997707"/>
      <point x="512" y="402" type="curve"/>
    </contour>
    <contour>
      <point x="194" y="405" type="line"/>
      <point x="194" y="525" type="line"/>
      <point x="42" y="525" type="line"/>
      <point x="42" y="474" type="line"/>
      <point x="113" y="439" type="line"/>
      <point x="113" y="75" type="line"/>
      <point x="71" y="49" type="line"/>
      <point x="71" y="0" type="line"/>
      <point x="312" y="0" type="line"/>
      <point x="312" y="49" type="line"/>
      <point x="212" y="75" type="line"/>
      <point x="212" y="378" type="line"/>
    </contour>
    <contour>
      <point x="552" y="383" type="line"/>
      <point x="552.0" y="465.0"/>
      <point x="486.193548387" y="538.0"/>
      <point x="402" y="538" type="curve"/>
      <point x="280" y="538"/>
      <point x="218.6442408" y="478.16327275"/>
      <point x="169" y="400" type="curve"/>
      <point x="203" y="328" type="line"/>
      <point x="221" y="385"/>
      <point x="277.2" y="454.0"/>
      <point x="362" y="454" type="curve"/>
      <point x="434.0" y="454.0"/>
      <point x="452" y="412.0"/>
      <point x="452" y="305" type="curve" smooth="yes"/>
      <point x="452" y="73" type="line"/>
      <point x="413" y="49" type="line"/>
      <point x="413" y="0" type="line"/>
      <point x="654" y="0" type="line"/>
      <point x="654" y="49" type="line"/>
      <point x="552" y="75" type="line"/>
    </contour>
  </outline>
</glyph>
<glyph name="n" format="1">
  <advance width="676"/>
  <unicode hex="006E"/>
  <outline>
    <contour>
      <point x="313" y="0" type="line"/>
      <point x="313" y="49" type="line"/>
      <point x="213" y="75" type="line"/>
      <point x="213" y="378" type="line"/>
      <point x="195" y="412" type="line"/>
      <point x="195" y="525" type="line"/>
      <point x="43" y="525" type="line"/>
      <point x="43" y="474" type="line"/>
      <point x="114" y="439" type="line"/>
      <point x="114" y="75" type="line"/>
      <point x="72" y="49" type="line"/>
      <point x="72" y="0" type="line"/>
    </contour>
    <contour>
      <point x="385" y="535" type="curve"/>
      <point x="257" y="535"/>
      <point x="188" y="449"/>
      <point x="178" y="393" type="curve"/>
      <point x="204" y="329" type="line"/>
      <point x="226" y="400"/>
      <point x="292.0" y="456.0"/>
      <point x="366" y="456" type="curve"/>
      <point x="449" y="456"/>
      <point x="467" y="431"/>
      <point x="467" y="313" type="curve"/>
      <point x="467" y="75" type="line"/>
      <point x="419" y="49" type="line"/>
      <point x="419" y="0" type="line"/>
      <point x="641" y="0" type="line"/>
      <point x="641" y="49" type="line"/>
      <point x="566" y="75" type="line"/>
      <point x="566" y="341" type="line"/>
      <point x="566" y="481"/>
      <point x="531" y="535"/>
    </contour>
  </outline>
</glyph>
<glyph name="o" format="1">
  <advance width="600"/>
  <unicode hex="006F"/>
  <outline>
    <contour>
      <point x="300" y="-17" type="curve" smooth="yes"/>
      <point x="486" y="-17"/>
      <point x="540" y="89"/>
      <point x="540" y="272" type="curve" smooth="yes"/>
      <point x="540" y="450"/>
      <point x="482" y="551"/>
      <point x="300" y="551" type="curve" smooth="yes"/>
      <point x="114" y="551"/>
      <point x="60" y="443"/>
      <point x="60" y="262" type="curve" smooth="yes"/>
      <point x="60" y="82"/>
      <point x="118" y="-17"/>
    </contour>
    <contour>
      <point x="300" y="62" type="curve" smooth="yes"/>
      <point x="185.0" y="62.0"/>
      <point x="162.0" y="134.361809045"/>
      <point x="162" y="262" type="curve" smooth="yes"/>
      <point x="162.0" y="391.0"/>
      <point x="177.220588235" y="472.0"/>
      <point x="300" y="472" type="curve" smooth="yes"/>
      <point x="414.661764706" y="472.0"/>
      <point x="438.0" y="398.0"/>
      <point x="438" y="272" type="curve" smooth="yes"/>
      <point x="438.0" y="141.377990431"/>
      <point x="423.0" y="62.0"/>
    </contour>
  </outline>
</glyph>
<glyph name="p" format="1">
  <advance width="630"/>
  <unicode hex="0070"/>
  <outline>
    <contour>
      <point x="141" y="74" type="curve"/>
      <point x="181" y="120" type="line"/>
      <point x="201" y="99"/>
      <point x="248" y="65"/>
      <point x="346" y="65" type="curve"/>
      <point x="447" y="65"/>
      <point x="467" y="156"/>
      <point x="467" y="278" type="curve"/>
      <point x="467" y="409"/>
      <point x="436" y="461"/>
      <point x="355" y="461" type="curve"/>
      <point x="257" y="461"/>
      <point x="201" y="385"/>
      <point x="168" y="331" type="curve"/>
      <point x="135" y="379" type="line"/>
      <point x="175" y="440"/>
      <point x="234" y="542"/>
      <point x="376" y="542" type="curve"/>
      <point x="513" y="542"/>
      <point x="570" y="472"/>
      <point x="570" y="278" type="curve" smooth="yes"/>
      <point x="570" y="93"/>
      <point x="508" y="-13"/>
      <point x="361" y="-13" type="curve"/>
      <point x="214" y="-13"/>
      <point x="176" y="36"/>
    </contour>
    <contour>
      <point x="60" y="-200" type="line"/>
      <point x="60" y="-151" type="line"/>
      <point x="102" y="-125" type="line"/>
      <point x="102" y="438" type="line"/>
      <point x="34" y="479" type="line"/>
      <point x="34" y="525" type="line"/>
      <point x="184" y="525" type="line"/>
      <point x="198" y="412" type="line"/>
      <point x="198" y="-121" type="line"/>
      <point x="289" y="-151" type="line"/>
      <point x="289" y="-200" type="line"/>
    </contour>
  </outline>
</glyph>
<glyph name="q" format="1">
  <advance width="627"/>
  <unicode hex="0071"/>
  <outline>
    <contour>
      <point x="495" y="403" type="curve"/>
      <point x="454" y="355" type="line"/>
      <point x="432" y="384"/>
      <point x="379" y="465"/>
      <point x="281" y="465" type="curve" smooth="yes"/>
      <point x="180" y="465"/>
      <point x="163" y="373"/>
      <point x="163" y="267" type="curve"/>
      <point x="163" y="139"/>
      <point x="184" y="66"/>
      <point x="269" y="66" type="curve" smooth="yes"/>
      <point x="363" y="66"/>
      <point x="418" y="122"/>
      <point x="455" y="176" type="curve"/>
      <point x="488" y="128" type="line"/>
      <point x="452" y="75"/>
      <point x="393" y="-16"/>
      <point x="254" y="-16" type="curve"/>
      <point x="114" y="-16"/>
      <point x="60" y="73"/>
      <point x="60" y="267" type="curve" smooth="yes"/>
      <point x="60" y="434"/>
      <point x="111" y="543"/>
      <point x="266" y="543" type="curve"/>
      <point x="407" y="543"/>
      <point x="470" y="433"/>
    </contour>
    <contour>
      <point x="380" y="-200" type="line"/>
      <point x="380" y="-151" type="line"/>
      <point x="429" y="-125" type="line"/>
      <point x="429" y="412" type="line"/>
      <point x="450" y="535" type="line"/>
      <point x="525" y="535" type="line"/>
      <point x="525" y="-125" type="line"/>
      <point x="602" y="-151" type="line"/>
      <point x="602" y="-200" type="line"/>
    </contour>
  </outline>
</glyph>
<glyph name="r" format="1">
  <advance width="466"/>
  <unicode hex="0072"/>
  <outline>
    <contour>
      <point x="187" y="401" type="line"/>
      <point x="187" y="525" type="line"/>
      <point x="35" y="525" type="line"/>
      <point x="35" y="474" type="line"/>
      <point x="106" y="439" type="line"/>
      <point x="106" y="74" type="line"/>
      <point x="64" y="48" type="line"/>
      <point x="64" y="-1" type="line"/>
      <point x="305" y="-1" type="line"/>
      <point x="305" y="48" type="line"/>
      <point x="205" y="75" type="line"/>
      <point x="205" y="373" type="line"/>
    </contour>
    <contour>
      <point x="195" y="325" type="line"/>
      <point x="220" y="391"/>
      <point x="273" y="453"/>
      <point x="382" y="453" type="curve"/>
      <point x="352" y="481" type="line"/>
      <point x="391" y="370" type="line"/>
      <point x="451" y="370" type="line"/>
      <point x="456" y="515" type="line"/>
      <point x="448" y="526"/>
      <point x="409" y="535"/>
      <point x="361" y="535" type="curve"/>
      <point x="266" y="535"/>
      <point x="182" y="453"/>
      <point x="169" y="388" type="curve"/>
    </contour>
  </outline>
</glyph>
<glyph name="s" format="1">
  <advance width="530"/>
  <unicode hex="0073"/>
  <outline>
    <contour>
      <point x="297" y="311" type="curve" smooth="yes"/>
      <point x="198" y="334"/>
      <point x="160" y="344"/>
      <point x="160" y="399" type="curve"/>
      <point x="160" y="451"/>
      <point x="193" y="478"/>
      <point x="267" y="478" type="curve"/>
      <point x="324" y="478"/>
      <point x="362" y="457"/>
      <point x="370" y="447" type="curve"/>
      <point x="389" y="386" type="line"/>
      <point x="452" y="386" type="line"/>
      <point x="452" y="495" type="line"/>
      <point x="430" y="516"/>
      <point x="376" y="547"/>
      <point x="269" y="547" type="curve"/>
      <point x="119" y="547"/>
      <point x="66" y="497"/>
      <point x="66" y="394" type="curve"/>
      <point x="66" y="290"/>
      <point x="121" y="255"/>
      <point x="236" y="232" type="curve" smooth="yes"/>
      <point x="332" y="213"/>
      <point x="386" y="198"/>
      <point x="386" y="142" type="curve"/>
      <point x="386" y="77"/>
      <point x="343" y="59"/>
      <point x="270" y="59" type="curve"/>
      <point x="200" y="59"/>
      <point x="158" y="87"/>
      <point x="155" y="92" type="curve"/>
      <point x="133" y="166" type="line"/>
      <point x="69" y="166" type="line"/>
      <point x="69" y="50" type="line"/>
      <point x="87" y="34"/>
      <point x="137" y="-15"/>
      <point x="276" y="-15" type="curve" smooth="yes"/>
      <point x="423" y="-15"/>
      <point x="480" y="28"/>
      <point x="480" y="148" type="curve"/>
      <point x="480" y="275"/>
      <point x="414" y="284"/>
    </contour>
  </outline>
</glyph>
<glyph name="t" format="1">
  <advance width="382"/>
  <unicode hex="0074"/>
  <outline>
    <contour>
      <point x="80" y="185" type="curve"/>
      <point x="80" y="525" type="line"/>
      <point x="113" y="622" type="line"/>
      <point x="176" y="622" type="line"/>
      <point x="176" y="196" type="line"/>
      <point x="176" y="109"/>
      <point x="183" y="59"/>
      <point x="264" y="59" type="curve"/>
      <point x="298" y="59"/>
      <point x="321" y="69"/>
      <point x="338" y="78" type="curve"/>
      <point x="357" y="20" type="line"/>
      <point x="340" y="6"/>
      <point x="296" y="-13"/>
      <point x="231" y="-13" type="curve"/>
      <point x="120" y="-13"/>
      <point x="80" y="39"/>
    </contour>
    <contour>
      <point x="16" y="525" type="line"/>
      <point x="328" y="525" type="line"/>
      <point x="328" y="454" type="line"/>
      <point x="16" y="454" type="line"/>
    </contour>
  </outline>
</glyph>
<glyph name="u" format="1">
  <advance width="658"/>
  <unicode hex="0075"/>
  <outline>
    <contour>
      <point x="460" y="190" type="line"/>
      <point x="432.645190929" y="144.408651548"/>
      <point x="377.146341463" y="68.0"/>
      <point x="288" y="68" type="curve"/>
      <point x="217.553191489" y="68.0"/>
      <point x="202" y="110.0"/>
      <point x="202" y="235" type="curve" smooth="yes"/>
      <point x="202" y="525" type="line"/>
      <point x="34" y="525" type="line"/>
      <point x="34" y="472" type="line"/>
      <point x="102" y="448" type="line"/>
      <point x="102" y="196" type="line"/>
      <point x="102" y="46"/>
      <point x="135" y="-13"/>
      <point x="264" y="-13" type="curve"/>
      <point x="374" y="-13"/>
      <point x="450" y="40"/>
      <point x="487" y="149" type="curve"/>
    </contour>
    <contour>
      <point x="467" y="138" type="line"/>
      <point x="467" y="0" type="line"/>
      <point x="624" y="0" type="line"/>
      <point x="624" y="47" type="line"/>
      <point x="550" y="82" type="line"/>
      <point x="550" y="525" type="line"/>
      <point x="368" y="525" type="line"/>
      <point x="368" y="472" type="line"/>
      <point x="451" y="445" type="line"/>
      <point x="451" y="151" type="line"/>
    </contour>
  </outline>
</glyph>
<glyph name="v" format="1">
  <advance width="608"/>
  <unicode hex="0076"/>
  <outline>
    <contour>
      <point x="246" y="0" type="line"/>
      <point x="346" y="0" type="line"/>
      <point x="531" y="450" type="line"/>
      <point x="598" y="476" type="line"/>
      <point x="598" y="525" type="line"/>
      <point x="382" y="525" type="line"/>
      <point x="382" y="476" type="line"/>
      <point x="436" y="450" type="line"/>
      <point x="320" y="143" type="line"/>
      <point x="305" y="93" type="line"/>
      <point x="293" y="143" type="line"/>
      <point x="175" y="450" type="line"/>
      <point x="226" y="476" type="line"/>
      <point x="226" y="525" type="line"/>
      <point x="10" y="525" type="line"/>
      <point x="10" y="476" type="line"/>
      <point x="74" y="450" type="line"/>
    </contour>
  </outline>
</glyph>
<glyph name="w" format="1">
  <advance width="874"/>
  <unicode hex="0077"/>
  <outline>
    <contour>
      <point x="303" y="0" type="line"/>
      <point x="435" y="435" type="line"/>
      <point x="420" y="435" type="line"/>
      <point x="537" y="0" type="line"/>
      <point x="641" y="0" type="line"/>
      <point x="780" y="451" type="line"/>
      <point x="844" y="476" type="line"/>
      <point x="844" y="525" type="line"/>
      <point x="631" y="525" type="line"/>
      <point x="631" y="476" type="line"/>
      <point x="684" y="450" type="line"/>
      <point x="605" y="156" type="line"/>
      <point x="591" y="78" type="line"/>
      <point x="579" y="156" type="line"/>
      <point x="471" y="522" type="line"/>
      <point x="388" y="522" type="line"/>
      <point x="270" y="156" type="line"/>
      <point x="257" y="79" type="line"/>
      <point x="246" y="156" type="line"/>
      <point x="169" y="450" type="line"/>
      <point x="221" y="476" type="line"/>
      <point x="221" y="525" type="line"/>
      <point x="10" y="525" type="line"/>
      <point x="10" y="476" type="line"/>
      <point x="70" y="452" type="line"/>
      <point x="199" y="0" type="line"/>
    </contour>
  </outline>
</glyph>
<glyph name="x" format="1">
  <advance width="595"/>
  <unicode hex="0078"/>
  <outline>
    <contour>
      <point x="244" y="308" type="line"/>
      <point x="85" y="73" type="line"/>
      <point x="20" y="49" type="line"/>
      <point x="20" y="0" type="line"/>
      <point x="236" y="0" type="line"/>
      <point x="236" y="49" type="line"/>
      <point x="187" y="75" type="line"/>
      <point x="301" y="249" type="line"/>
    </contour>
    <contour>
      <point x="344" y="237" type="line"/>
      <point x="495" y="451" type="line"/>
      <point x="570" y="476" type="line"/>
      <point x="570" y="525" type="line"/>
      <point x="354" y="525" type="line"/>
      <point x="354" y="476" type="line"/>
      <point x="395" y="450" type="line"/>
      <point x="289" y="296" type="line"/>
    </contour>
    <contour>
      <point x="247" y="253" type="line"/>
      <point x="272" y="242" type="line"/>
      <point x="398" y="75" type="line"/>
      <point x="354" y="49" type="line"/>
      <point x="354" y="0" type="line"/>
      <point x="575" y="0" type="line"/>
      <point x="575" y="49" type="line"/>
      <point x="512" y="74" type="line"/>
      <point x="338" y="289" type="line"/>
      <point x="317" y="301" type="line"/>
      <point x="206" y="450" type="line"/>
      <point x="244" y="476" type="line"/>
      <point x="244" y="525" type="line"/>
      <point x="28" y="525" type="line"/>
      <point x="28" y="476" type="line"/>
      <point x="91" y="451" type="line"/>
    </contour>
  </outline>
</glyph>
<glyph name="y" format="1">
  <advance width="614"/>
  <unicode hex="0079"/>
  <outline>
    <contour>
      <point x="277" y="-13" type="curve"/>
      <point x="409" y="-13"/>
      <point x="461" y="69"/>
      <point x="486" y="120" type="curve"/>
      <point x="455" y="170" type="line"/>
      <point x="434" y="125"/>
      <point x="385" y="71"/>
      <point x="297" y="71" type="curve"/>
      <point x="225" y="71"/>
      <point x="201" y="108"/>
      <point x="201" y="223" type="curve" smooth="yes"/>
      <point x="201" y="525" type="line"/>
      <point x="33" y="525" type="line"/>
      <point x="33" y="472" type="line"/>
      <point x="101" y="448" type="line"/>
      <point x="101" y="196" type="line"/>
      <point x="101" y="46"/>
      <point x="147" y="-13"/>
    </contour>
    <contour>
      <point x="309" y="-210" type="curve"/>
      <point x="435" y="-210"/>
      <point x="536" y="-155"/>
      <point x="536" y="9" type="curve"/>
      <point x="536" y="525" type="line"/>
      <point x="357" y="525" type="line"/>
      <point x="357" y="472" type="line"/>
      <point x="437" y="446" type="line"/>
      <point x="437" y="14" type="line"/>
      <point x="437" y="-91"/>
      <point x="403" y="-132"/>
      <point x="292" y="-132" type="curve"/>
      <point x="220" y="-132"/>
      <point x="170" y="-114"/>
      <point x="136" y="-94" type="curve"/>
      <point x="108" y="-163" type="line"/>
      <point x="131" y="-179"/>
      <point x="196" y="-210"/>
    </contour>
  </outline>
</glyph>
<glyph name="braceleft" format="1">
  <advance width="500"/>
  <unicode hex="007B"/>
  <outline>
    <contour>
      <point x="156" y="362" type="line"/>
      <point x="113" y="362"/>
      <point x="84" y="425"/>
      <point x="84" y="602" type="curve" smooth="yes"/>
      <point x="84" y="775"/>
      <point x="173" y="863"/>
      <point x="320" y="863" type="curve"/>
      <point x="320" y="828" type="line"/>
      <point x="236" y="828"/>
      <point x="184" y="739"/>
      <point x="184" y="602" type="curve" smooth="yes"/>
      <point x="184" y="461"/>
      <point x="197" y="379"/>
      <point x="267" y="379" type="curve"/>
      <point x="257" y="348" type="line"/>
      <point x="143" y="313" type="line"/>
      <point x="276" y="242" type="line"/>
      <point x="206" y="242"/>
      <point x="184" y="153"/>
      <point x="184" y="16" type="curve" smooth="yes"/>
      <point x="184" y="-125"/>
      <point x="235" y="-207"/>
      <point x="320" y="-207" type="curve"/>
      <point x="320" y="-245" type="line"/>
      <point x="173" y="-245"/>
      <point x="84" y="-161"/>
      <point x="84" y="16" type="curve" smooth="yes"/>
      <point x="84" y="190"/>
      <point x="103" y="233"/>
      <point x="165" y="233" type="curve"/>
      <point x="-24" y="304" type="line"/>
      <point x="-22" y="323" type="line"/>
    </contour>
  </outline>
</glyph>
<glyph name="bar" format="1">
  <advance width="299"/>
  <unicode hex="007C"/>
  <outline>
    <contour>
      <point x="199" y="-115" type="line"/>
      <point x="193" y="-115" type="line"/>
      <point x="193" y="840" type="line"/>
      <point x="105" y="840" type="line"/>
      <point x="105" y="-115" type="line"/>
    </contour>
  </outline>
</glyph>
<glyph name="braceright" format="1">
  <advance width="405"/>
  <unicode hex="007D"/>
  <outline>
    <contour>
      <point x="357" y="446" type="curve"/>
      <point x="357" y="346" type="line"/>
      <point x="253" y="346"/>
      <point x="217" y="303"/>
      <point x="217" y="247" type="curve" smooth="yes"/>
      <point x="217" y="193"/>
      <point x="261" y="95"/>
      <point x="261" y="16" type="curve"/>
      <point x="261" y="-73"/>
      <point x="182" y="-127"/>
      <point x="35" y="-127" type="curve"/>
      <point x="35" y="-74" type="line"/>
      <point x="119" y="-74"/>
      <point x="172" y="-38"/>
      <point x="172" y="35" type="curve"/>
      <point x="172" y="126"/>
      <point x="131" y="179"/>
      <point x="131" y="255" type="curve"/>
      <point x="131" y="327"/>
      <point x="189" y="386"/>
      <point x="253" y="386" type="curve"/>
      <point x="253" y="396" type="line"/>
      <point x="189" y="396"/>
      <point x="131" y="453"/>
      <point x="131" y="521" type="curve"/>
      <point x="131" y="601"/>
      <point x="172" y="674"/>
      <point x="172" y="769" type="curve"/>
      <point x="172" y="834"/>
      <point x="119" y="859"/>
      <point x="35" y="859" type="curve"/>
      <point x="35" y="913" type="line"/>
      <point x="182" y="913"/>
      <point x="261" y="859"/>
      <point x="261" y="770" type="curve"/>
      <point x="261" y="687"/>
      <point x="217" y="585"/>
      <point x="217" y="529" type="curve" smooth="yes"/>
      <point x="217" y="473"/>
      <point x="253" y="446"/>
    </contour>
  </outline>
</glyph>
<glyph name="asciitilde" format="1">
  <advance width="555"/>
  <unicode hex="007E"/>
  <outline>
    <contour>
      <point x="539" y="464" type="line"/>
      <point x="470" y="464" type="line"/>
      <point x="470" y="441" type="line"/>
      <point x="470" y="391"/>
      <point x="460" y="368"/>
      <point x="412" y="368" type="curve"/>
      <point x="374.693693694" y="368.0"/>
      <point x="347.99306236" y="379.698178003"/>
      <point x="311" y="411" type="curve"/>
      <point x="235.566418142" y="469.025832198"/>
      <point x="201.137566138" y="470.0"/>
      <point x="132" y="470" type="curve"/>
      <point x="73" y="470"/>
      <point x="14" y="434"/>
      <point x="14" y="356" type="curve"/>
      <point x="14" y="308" type="line"/>
      <point x="83" y="308" type="line"/>
      <point x="83" y="334" type="line" smooth="yes"/>
      <point x="83" y="378"/>
      <point x="98" y="400"/>
      <point x="134" y="400" type="curve"/>
      <point x="168.131782946" y="400.0"/>
      <point x="197.957196226" y="402.909568185"/>
      <point x="253" y="364" type="curve"/>
      <point x="324.447425424" y="308.966172308"/>
      <point x="359.722222222" y="302.0"/>
      <point x="423" y="302" type="curve"/>
      <point x="477" y="302"/>
      <point x="539" y="339"/>
      <point x="539" y="429" type="curve"/>
    </contour>
  </outline>
</glyph>
<glyph name="sterling" format="1">
  <advance width="587"/>
  <unicode hex="00A3"/>
  <outline>
    <contour>
      <point x="168" y="85" type="line"/>
      <point x="215" y="85"/>
      <point x="268" y="150"/>
      <point x="268" y="221" type="curve" smooth="yes"/>
      <point x="268" y="310"/>
      <point x="167" y="425"/>
      <point x="167" y="548" type="curve"/>
      <point x="167" y="640"/>
      <point x="198" y="694"/>
      <point x="300" y="694" type="curve"/>
      <point x="371" y="694"/>
      <point x="397" y="666"/>
      <point x="439" y="620" type="curve"/>
      <point x="406" y="682" type="line"/>
      <point x="402" y="527" type="line"/>
      <point x="475" y="527" type="line"/>
      <point x="507" y="673" type="line"/>
      <point x="507" y="685"/>
      <point x="441" y="777"/>
      <point x="295" y="777" type="curve"/>
      <point x="127" y="777"/>
      <point x="66" y="679"/>
      <point x="66" y="549" type="curve"/>
      <point x="66" y="425"/>
      <point x="165" y="286"/>
      <point x="165" y="219" type="curve" smooth="yes"/>
      <point x="165" y="170"/>
      <point x="111" y="121"/>
      <point x="36" y="97" type="curve"/>
      <point x="36" y="-1" type="line"/>
      <point x="517" y="-1" type="line"/>
      <point x="517" y="85" type="line"/>
    </contour>
    <contour>
      <point x="38" y="391" type="line"/>
      <point x="38" y="314" type="line"/>
      <point x="443" y="314" type="line"/>
      <point x="443" y="391" type="line"/>
    </contour>
  </outline>
</glyph>
<glyph name="dieresis" format="1">
  <advance width="500"/>
  <unicode hex="00A8"/>
  <outline>
    <contour>
      <point x="163" y="807" type="curve" smooth="yes"/>
      <point x="207" y="807"/>
      <point x="221" y="796"/>
      <point x="221" y="736" type="curve" smooth="yes"/>
      <point x="221" y="676"/>
      <point x="207" y="663"/>
      <point x="163" y="663" type="curve" smooth="yes"/>
      <point x="117" y="663"/>
      <point x="104" y="676"/>
      <point x="104" y="736" type="curve" smooth="yes"/>
      <point x="104" y="796"/>
      <point x="117" y="807"/>
    </contour>
    <contour>
      <point x="347" y="807" type="curve" smooth="yes"/>
      <point x="392" y="807"/>
      <point x="406" y="796"/>
      <point x="406" y="736" type="curve" smooth="yes"/>
      <point x="406" y="676"/>
      <point x="392" y="663"/>
      <point x="347" y="663" type="curve" smooth="yes"/>
      <point x="302" y="663"/>
      <point x="289" y="676"/>
      <point x="289" y="736" type="curve" smooth="yes"/>
      <point x="289" y="796"/>
      <point x="302" y="807"/>
    </contour>
    <contour>
      <point x="258" y="595" type="move" name="_top"/>
    </contour>
  </outline>
</glyph>
<glyph name="acute" format="1">
  <advance width="614"/>
  <unicode hex="00B4"/>
  <outline>
    <contour>
      <point x="336" y="604" type="line"/>
      <point x="270" y="629" type="line"/>
      <point x="494" y="818" type="line"/>
      <point x="620" y="808" type="line"/>
      <point x="617" y="761" type="line"/>
    </contour>
    <contour>
      <point x="177" y="614" type="move" name="_lefty"/>
    </contour>
  </outline>
</glyph>
<glyph name="cedilla" format="1">
  <advance width="500"/>
  <unicode hex="00B8"/>
  <outline>
    <contour>
      <point x="236" y="-65" type="line"/>
      <point x="286" y="28" type="line"/>
      <point x="350" y="30" type="line"/>
      <point x="280" y="-81" type="line"/>
      <point x="256" y="-52" type="line"/>
      <point x="299" y="-52" type="line"/>
      <point x="404" y="-52"/>
      <point x="428" y="-82"/>
      <point x="428" y="-150" type="curve" smooth="yes"/>
      <point x="428" y="-219"/>
      <point x="394" y="-263"/>
      <point x="287" y="-263" type="curve" smooth="yes"/>
      <point x="219" y="-263"/>
      <point x="191" y="-246"/>
      <point x="164" y="-220" type="curve"/>
      <point x="195" y="-167" type="line"/>
      <point x="216" y="-181"/>
      <point x="239" y="-194"/>
      <point x="271" y="-194" type="curve"/>
      <point x="311" y="-193"/>
      <point x="337" y="-181"/>
      <point x="337" y="-156" type="curve" smooth="yes"/>
      <point x="337.0" y="-120.068181818"/>
      <point x="324" y="-105"/>
      <point x="262" y="-105" type="curve"/>
    </contour>
    <contour>
      <point x="226.0" y="23.0" type="move" name="_bottom"/>
    </contour>
  </outline>
</glyph>
<glyph name="germandbls" format="1">
  <advance width="674"/>
  <unicode hex="00DF"/>
  <outline>
    <contour>
      <point x="399" y="401" type="curve"/>
      <point x="399" y="355"/>
      <point x="445" y="341"/>
      <point x="517" y="310" type="curve" smooth="yes"/>
      <point x="609.352220606" y="269.980704404"/>
      <point x="644" y="211"/>
      <point x="644" y="139" type="curve"/>
      <point x="644" y="83"/>
      <point x="603.0" y="-15.0"/>
      <point x="469" y="-15" type="curve"/>
      <point x="340.614906832" y="-15.0"/>
      <point x="291.684521855" y="32.3154781446"/>
      <point x="274" y="50" type="curve"/>
      <point x="274" y="149" type="line"/>
      <point x="338" y="149" type="line"/>
      <point x="361" y="89" type="line"/>
      <point x="373.750431552" y="78.7996547586"/>
      <point x="385.706666667" y="59.0"/>
      <point x="470" y="59" type="curve"/>
      <point x="532.0" y="59.0"/>
      <point x="548" y="96"/>
      <point x="548" y="134" type="curve"/>
      <point x="548" y="173"/>
      <point x="532.979724088" y="194.510137956"/>
      <point x="452" y="235" type="curve" smooth="yes"/>
      <point x="364" y="279"/>
      <point x="304" y="306"/>
      <point x="304" y="396" type="curve"/>
      <point x="304" y="471"/>
      <point x="351" y="510"/>
      <point x="404" y="547" type="curve" smooth="yes"/>
      <point x="442.568427939" y="574.403883009"/>
      <point x="492" y="611"/>
      <point x="492" y="652" type="curve"/>
      <point x="492" y="707"/>
      <point x="450.931506849" y="745.0"/>
      <point x="356" y="745" type="curve"/>
      <point x="249" y="745"/>
      <point x="207" y="673"/>
      <point x="207" y="571" type="curve"/>
      <point x="207" y="0" type="line"/>
      <point x="54" y="0" type="line"/>
      <point x="54" y="49" type="line"/>
      <point x="108" y="75" type="line"/>
      <point x="108" y="559" type="line"/>
      <point x="108" y="736"/>
      <point x="192" y="815"/>
      <point x="355" y="815" type="curve"/>
      <point x="526.684782608" y="815.0"/>
      <point x="580" y="741"/>
      <point x="580" y="637" type="curve"/>
      <point x="580" y="577"/>
      <point x="546.918127602" y="544.330945683"/>
      <point x="496" y="509" type="curve" smooth="yes"/>
      <point x="428" y="462"/>
      <point x="399.0" y="440.932773109"/>
    </contour>
  </outline>
</glyph>
<glyph name="igrave" format="1">
  <advance width="349"/>
  <unicode hex="00EC"/>
  <outline>
    <contour>
      <point x="73" y="0" type="line"/>
      <point x="295" y="0" type="line"/>
      <point x="295" y="49" type="line"/>
      <point x="219" y="75" type="line"/>
      <point x="218" y="75" type="line"/>
      <point x="218" y="525" type="line"/>
      <point x="59" y="525" type="line"/>
      <point x="59" y="474" type="line"/>
      <point x="119" y="444" type="line"/>
      <point x="119" y="74" type="line"/>
      <point x="73" y="49" type="line"/>
    </contour>
    <component base="grave" xOffset="-153" yOffset="-1"/>
  </outline>
</glyph>
<glyph name="iacute" format="1">
  <advance width="349"/>
  <unicode hex="00ED"/>
  <outline>
    <contour>
      <point x="73" y="0" type="line"/>
      <point x="295" y="0" type="line"/>
      <point x="295" y="49" type="line"/>
      <point x="219" y="75" type="line"/>
      <point x="218" y="75" type="line"/>
      <point x="218" y="525" type="line"/>
      <point x="59" y="525" type="line"/>
      <point x="59" y="474" type="line"/>
      <point x="119" y="444" type="line"/>
      <point x="119" y="74" type="line"/>
      <point x="73" y="49" type="line"/>
    </contour>
    <component base="acute" xOffset="-209" yOffset="-5"/>
  </outline>
</glyph>
<glyph name="idieresis" format="1">
  <advance width="376"/>
  <unicode hex="00EF"/>
  <outline>
    <contour>
      <point x="73" y="0" type="line"/>
      <point x="295" y="0" type="line"/>
      <point x="295" y="49" type="line"/>
      <point x="219" y="75" type="line"/>
      <point x="218" y="75" type="line"/>
      <point x="218" y="525" type="line"/>
      <point x="59" y="525" type="line"/>
      <point x="59" y="474" type="line"/>
      <point x="119" y="444" type="line"/>
      <point x="119" y="74" type="line"/>
      <point x="73" y="49" type="line"/>
    </contour>
    <component base="dieresis" xOffset="-74"/>
    <contour>
      <point x="175" y="605" type="move" name="top"/>
    </contour>
  </outline>
</glyph>
<glyph name="circumflex" format="1">
  <advance width="616"/>
  <unicode hex="02C6"/>
  <outline>
    <contour>
      <point x="100" y="636" type="line"/>
      <point x="266" y="833" type="line"/>
      <point x="342" y="833" type="line"/>
      <point x="516" y="636" type="line"/>
      <point x="464" y="596" type="line"/>
      <point x="284" y="766" type="line"/>
      <point x="323" y="767" type="line"/>
      <point x="152" y="596" type="line"/>
    </contour>
    <contour>
      <point x="302.0" y="625.0" type="move" name="_top"/>
    </contour>
  </outline>
</glyph>
<glyph name="tilde" format="1">
  <advance width="614"/>
  <unicode hex="02DC"/>
  <outline>
    <contour>
      <point x="509" y="764" type="line"/>
      <point x="440" y="764" type="line"/>
      <point x="440" y="741" type="line"/>
      <point x="440" y="691"/>
      <point x="429.824561404" y="668.0"/>
      <point x="382" y="668" type="curve"/>
      <point x="356.2625" y="668.0"/>
      <point x="338" y="684"/>
      <point x="311" y="711" type="curve" smooth="yes"/>
      <point x="258" y="765"/>
      <point x="232" y="770"/>
      <point x="182" y="770" type="curve"/>
      <point x="123" y="770"/>
      <point x="64.0" y="734.440366972"/>
      <point x="64" y="656" type="curve"/>
      <point x="64" y="608" type="line"/>
      <point x="133" y="608" type="line"/>
      <point x="133" y="634" type="line" smooth="yes"/>
      <point x="133" y="678"/>
      <point x="148" y="700"/>
      <point x="184" y="700" type="curve"/>
      <point x="203.714285714" y="700.0"/>
      <point x="222" y="697"/>
      <point x="253" y="664" type="curve" smooth="yes"/>
      <point x="308" y="604"/>
      <point x="341" y="602"/>
      <point x="393" y="602" type="curve"/>
      <point x="447.0" y="602.0"/>
      <point x="509" y="639"/>
      <point x="509" y="729" type="curve"/>
    </contour>
    <contour>
      <point x="297" y="588" type="move" name="_top"/>
    </contour>
  </outline>
</glyph>
<glyph name="endash" format="1">
  <advance width="574"/>
  <unicode hex="2013"/>
  <outline>
    <contour>
      <point x="84" y="366" type="line"/>
      <point x="84" y="266" type="line"/>
      <point x="490" y="266" type="line"/>
      <point x="490" y="366" type="line"/>
    </contour>
  </outline>
</glyph>
<glyph name="emdash" format="1">
  <advance width="684"/>
  <unicode hex="2014"/>
  <outline>
    <contour>
      <point x="84" y="366" type="line"/>
      <point x="84" y="266" type="line"/>
      <point x="600" y="266" type="line"/>
      <point x="600" y="366" type="line"/>
    </contour>
  </outline>
</glyph>
<glyph name="quotesinglbase" format="1">
  <advance width="500"/>
  <unicode hex="201A"/>
  <outline>
    <contour>
      <point x="336" y="639" type="curve" smooth="yes"/>
      <point x="336" y="704"/>
      <point x="320" y="718"/>
      <point x="265" y="718" type="curve" smooth="yes"/>
      <point x="211" y="718"/>
      <point x="194" y="704"/>
      <point x="194" y="639" type="curve" smooth="yes"/>
      <point x="194" y="574"/>
      <point x="211" y="562"/>
      <point x="265" y="562" type="curve" smooth="yes"/>
      <point x="320" y="562"/>
      <point x="336" y="574"/>
    </contour>
    <contour>
      <point x="279" y="853" type="line"/>
      <point x="223" y="853" type="line"/>
      <point x="194" y="708" type="line"/>
      <point x="194" y="641" type="line"/>
      <point x="279" y="641" type="line"/>
    </contour>
  </outline>
</glyph>
<glyph name=".notdef" format="1">
  <advance width="726"/>
  <outline>
    <contour>
      <point x="272" y="618" type="curve" smooth="yes"/>
      <point x="316" y="618"/>
      <point x="330" y="607"/>
      <point x="330" y="547" type="curve" smooth="yes"/>
      <point x="330" y="487"/>
      <point x="316" y="474"/>
      <point x="272" y="474" type="curve" smooth="yes"/>
      <point x="226" y="474"/>
      <point x="213" y="487"/>
      <point x="213" y="547" type="curve" smooth="yes"/>
      <point x="213" y="607"/>
      <point x="226" y="618"/>
    </contour>
    <contour>
      <point x="456" y="618" type="curve" smooth="yes"/>
      <point x="501" y="618"/>
      <point x="515" y="607"/>
      <point x="515" y="547" type="curve" smooth="yes"/>
      <point x="515" y="487"/>
      <point x="501" y="474"/>
      <point x="456" y="474" type="curve" smooth="yes"/>
      <point x="411" y="474"/>
      <point x="398" y="487"/>
      <point x="398" y="547" type="curve" smooth="yes"/>
      <point x="398" y="607"/>
      <point x="411" y="618"/>
    </contour>
    <contour>
      <point x="582" y="335" type="curve"/>
      <point x="518" y="341" type="line"/>
      <point x="515" y="291"/>
      <point x="492" y="272"/>
      <point x="454" y="272" type="curve"/>
      <point x="386" y="272"/>
      <point x="381" y="360"/>
      <point x="276" y="360" type="curve"/>
      <point x="193" y="359"/>
      <point x="146" y="297"/>
      <point x="143" y="226" type="curve"/>
      <point x="207" y="215" type="line"/>
      <point x="212" y="250"/>
      <point x="234" y="280"/>
      <point x="273" y="280" type="curve"/>
      <point x="336" y="280"/>
      <point x="351" y="191"/>
      <point x="450" y="191" type="curve"/>
      <point x="531" y="191"/>
      <point x="577" y="247"/>
    </contour>
    <contour>
      <point x="98" y="740" type="line"/>
      <point x="98" y="57" type="line"/>
      <point x="630" y="57" type="line"/>
      <point x="630" y="740" type="line"/>
    </contour>
    <contour>
      <point x="31" y="804" type="line"/>
      <point x="697" y="804" type="line"/>
      <point x="697" y="-9" type="line"/>
      <point x="31" y="-9" type="line"/>
    </contour>
  </outline>
</glyph>
